<svg width="524" height="426" viewBox="0 0 524 426" fill="none" xmlns="http://www.w3.org/2000/svg">
<g clip-path="url(#clip0_127_1452)">
<path d="M405.458 58.7352C456.144 89.457 521.001 125.972 523.897 165.486C526.794 205 467.833 247.411 417.147 279.374C366.461 311.234 324.05 332.542 266.33 347.955C208.507 363.264 135.375 372.677 91.9296 340.818C48.4845 308.855 34.7269 235.722 50.0361 177.899C65.4488 120.179 109.928 77.7683 153.373 47.0464C196.818 16.3246 239.229 -2.60508 278.743 0.291261C318.258 3.29104 354.772 28.1168 405.458 58.7352Z" fill="#F1F1FB"/>
<path d="M445.668 145.199C443.267 143.185 439.076 141.848 434.293 141.848C433.571 141.848 432.862 141.889 432.167 141.945C432.167 141.913 432.167 141.88 432.167 141.848C432.167 139.742 431.582 137.678 430.479 135.884C429.375 134.091 427.796 132.639 425.916 131.69C424.96 131.2 424.16 130.452 423.607 129.531C423.054 128.61 422.77 127.552 422.788 126.478V126.436C422.787 121.815 420.95 117.383 417.683 114.115C414.415 110.848 409.984 109.011 405.362 109.01C405.055 109.01 404.756 109.043 404.458 109.057C404.458 108.894 404.458 108.73 404.458 108.591C404.462 103.23 402.539 98.0471 399.038 93.9875C395.538 89.9279 390.694 87.2627 385.391 86.4784C380.089 85.6942 374.681 86.8432 370.155 89.7157C365.629 92.5882 362.288 96.9926 360.74 102.125C360.35 103.441 359.494 104.57 358.333 105.301C357.171 106.033 355.783 106.317 354.428 106.101C352.168 105.746 349.857 105.884 347.655 106.506C345.453 107.129 343.412 108.221 341.673 109.707C339.933 111.193 338.535 113.038 337.576 115.115C336.617 117.193 336.119 119.453 336.117 121.741C336.117 122.138 336.145 122.525 336.177 122.916C335.786 122.883 335.394 122.856 334.998 122.856C331.384 122.856 327.918 124.291 325.363 126.847C322.807 129.402 321.371 132.868 321.371 136.482C321.371 136.645 321.371 136.799 321.371 136.948C319.615 135.696 317.446 135.162 315.309 135.454C313.171 135.747 311.226 136.845 309.871 138.524C309.303 139.253 308.57 139.837 307.731 140.227C306.893 140.616 305.974 140.801 305.051 140.766C304.547 140.738 304.034 140.729 303.512 140.729C297.247 140.729 291.858 142.565 289.55 145.195L445.668 145.199Z" fill="white"/>
<path d="M444.27 144.22C441.803 142.771 438.274 141.848 434.321 141.848C433.599 141.848 432.89 141.889 432.196 141.945C432.196 141.913 432.196 141.88 432.196 141.848C432.195 139.742 431.61 137.678 430.507 135.884C429.403 134.091 427.824 132.639 425.944 131.69C424.988 131.2 424.188 130.452 423.635 129.531C423.082 128.61 422.798 127.552 422.816 126.478V126.436C422.817 122.267 421.318 118.238 418.593 115.084C418.425 115.084 418.262 115.061 418.094 115.061C417.786 115.061 417.488 115.094 417.189 115.108C417.189 114.945 417.189 114.781 417.189 114.614C417.189 114.273 417.157 113.942 417.138 113.607C413.936 110.651 409.739 109.01 405.381 109.01C405.073 109.01 404.775 109.043 404.477 109.057C404.477 108.894 404.477 108.73 404.477 108.591C404.479 105.581 403.871 102.602 402.689 99.8348C401.507 97.0672 399.776 94.5681 397.601 92.4888C392.37 91.806 387.066 93.0096 382.643 95.8836C378.219 98.7576 374.964 103.114 373.462 108.171C373.073 109.488 372.217 110.617 371.056 111.349C369.894 112.081 368.506 112.365 367.15 112.147C364.888 111.79 362.575 111.928 360.371 112.55C358.167 113.173 356.124 114.266 354.383 115.754C352.642 117.241 351.244 119.089 350.285 121.169C349.326 123.248 348.83 125.511 348.829 127.802C348.829 128.198 348.857 128.59 348.885 128.981C348.498 128.944 348.107 128.92 347.711 128.92C344.097 128.92 340.631 130.356 338.075 132.912C335.52 135.467 334.084 138.933 334.084 142.547C334.084 142.705 334.084 142.864 334.107 143.013C332.351 141.756 330.18 141.219 328.04 141.511C325.9 141.803 323.953 142.903 322.598 144.584C322.417 144.804 322.222 145.013 322.015 145.209H444.531C444.451 144.868 444.358 144.542 444.27 144.22Z" fill="url(#paint0_linear_127_1452)"/>
<path d="M471 145.199C468.254 146.64 463.457 147.596 457.984 147.596C457.155 147.596 456.348 147.568 455.551 147.526C455.551 147.549 455.551 147.572 455.551 147.596C455.551 150.77 452.642 153.511 448.4 154.854C446.148 155.562 444.81 157.003 444.82 158.583V158.616C444.82 165.492 435.892 171.067 424.886 171.067C424.536 171.067 424.191 171.044 423.846 171.035C423.846 171.151 423.846 171.268 423.846 171.384C423.846 180.205 412.406 187.351 398.291 187.351C386.748 187.351 377 182.573 373.83 176.009C372.898 174.056 369.831 172.848 366.605 173.165C365.672 173.254 364.74 173.3 363.808 173.3C353.785 173.3 345.659 168.228 345.659 161.968C345.666 161.685 345.69 161.404 345.729 161.124C345.263 161.152 344.839 161.171 344.382 161.171C335.772 161.171 328.793 156.807 328.793 151.432C328.793 151.316 328.816 151.204 328.821 151.087C327.039 151.86 325.114 152.249 323.171 152.229C320.118 152.229 317.4 151.348 315.624 149.973C314.02 148.829 312.076 148.263 310.109 148.369C309.531 148.388 308.943 148.397 308.347 148.397C301.182 148.397 295.033 147.083 292.371 145.204L471 145.199Z" fill="white"/>
<path d="M469.369 145.899C466.544 146.934 462.506 147.595 457.985 147.595C457.155 147.595 456.348 147.568 455.551 147.526C455.551 147.549 455.551 147.572 455.551 147.595C455.551 150.77 452.642 153.511 448.4 154.854C446.148 155.562 444.81 157.003 444.82 158.583V158.616C444.82 161.716 442.992 164.546 439.99 166.727C439.799 166.727 439.613 166.727 439.417 166.727C439.067 166.727 438.727 166.727 438.382 166.695C438.382 166.816 438.382 166.932 438.382 167.049C438.382 167.291 438.34 167.515 438.326 167.772C434.778 169.804 430.061 171.035 424.872 171.035C424.522 171.035 424.177 171.012 423.833 171.002C423.833 171.119 423.833 171.235 423.833 171.352C423.833 175.878 420.807 179.957 415.963 182.862C414.929 182.941 413.88 182.997 412.812 182.997C401.27 182.997 391.522 178.214 388.347 171.65C387.415 169.702 384.347 168.489 381.126 168.806C380.197 168.9 379.263 168.947 378.329 168.946C368.306 168.946 360.181 163.87 360.181 157.609C360.188 157.328 360.211 157.048 360.251 156.77C359.785 156.793 359.356 156.812 358.904 156.812C350.293 156.812 343.315 152.453 343.315 147.073C343.315 146.961 343.315 146.85 343.343 146.733C341.559 147.501 339.635 147.889 337.693 147.871C334.639 147.871 331.921 146.994 330.141 145.614C329.928 145.453 329.705 145.305 329.474 145.171H469.695C469.603 145.421 469.494 145.664 469.369 145.899Z" fill="url(#paint1_linear_127_1452)"/>
<path d="M426.797 146.826C425.324 145.591 422.746 144.766 419.804 144.766C419.338 144.766 418.923 144.789 418.494 144.826C418.494 144.826 418.494 144.789 418.494 144.766C418.495 143.473 418.138 142.205 417.461 141.103C416.785 140.001 415.816 139.108 414.663 138.524C414.075 138.222 413.584 137.762 413.244 137.196C412.904 136.631 412.728 135.981 412.737 135.321V135.298C412.737 132.454 411.608 129.727 409.597 127.716C407.586 125.705 404.859 124.576 402.015 124.576C401.824 124.576 401.642 124.576 401.456 124.604C401.456 124.501 401.456 124.403 401.456 124.301C401.434 121.023 400.241 117.862 398.091 115.388C395.941 112.914 392.977 111.291 389.734 110.813C386.492 110.335 383.185 111.033 380.413 112.781C377.64 114.529 375.585 117.211 374.618 120.343C374.378 121.151 373.852 121.844 373.138 122.294C372.425 122.743 371.572 122.918 370.739 122.786C370.235 122.708 369.725 122.67 369.215 122.674C366.631 122.674 364.152 123.7 362.324 125.527C360.496 127.354 359.469 129.832 359.467 132.417C359.467 132.659 359.467 132.883 359.505 133.139C359.267 133.139 359.038 133.102 358.782 133.102C356.557 133.102 354.422 133.986 352.849 135.56C351.275 137.133 350.391 139.268 350.391 141.493C350.391 141.591 350.391 141.684 350.391 141.782C349.316 141.015 347.99 140.685 346.682 140.859C345.373 141.033 344.179 141.698 343.342 142.719C342.997 143.172 342.547 143.536 342.032 143.779C341.517 144.022 340.951 144.138 340.382 144.118C340.074 144.118 339.757 144.095 339.45 144.095C335.604 144.095 332.299 145.227 330.872 146.84L426.797 146.826Z" fill="white"/>
<path d="M426.797 146.826C426.417 146.515 426.005 146.246 425.567 146.024H425.473C425.473 146.024 425.473 145.987 425.473 145.969C423.7 145.14 421.761 144.727 419.805 144.761C419.338 144.761 418.924 144.784 418.495 144.822C418.495 144.822 418.495 144.784 418.495 144.761C418.495 143.469 418.137 142.202 417.46 141.101C416.784 140 415.815 139.108 414.663 138.524C414.076 138.222 413.584 137.762 413.244 137.196C412.904 136.631 412.729 135.981 412.737 135.321V135.298C412.737 132.454 411.608 129.727 409.597 127.716C407.586 125.705 404.859 124.576 402.015 124.576C401.824 124.576 401.642 124.576 401.456 124.604C401.456 124.501 401.456 124.403 401.456 124.301C401.455 121.676 400.703 119.107 399.288 116.897C397.873 114.687 395.854 112.929 393.47 111.83C390.745 112.076 388.156 113.131 386.035 114.859C383.914 116.586 382.357 118.908 381.564 121.527C381.324 122.336 380.797 123.031 380.083 123.481C379.369 123.931 378.515 124.107 377.681 123.974C377.182 123.894 376.676 123.853 376.171 123.853C373.585 123.853 371.106 124.88 369.278 126.708C367.45 128.536 366.423 131.016 366.423 133.601C366.423 133.843 366.423 134.067 366.46 134.323C366.222 134.323 365.994 134.286 365.738 134.286C363.512 134.286 361.378 135.17 359.804 136.744C358.23 138.318 357.346 140.452 357.346 142.677C357.346 142.78 357.346 142.873 357.346 142.971C356.266 142.194 354.929 141.86 353.61 142.039C352.291 142.217 351.091 142.895 350.256 143.931C349.91 144.384 349.461 144.748 348.946 144.991C348.431 145.234 347.865 145.35 347.296 145.33C346.983 145.33 346.671 145.307 346.363 145.307C343.566 145.307 341.067 145.903 339.371 146.85L426.797 146.826Z" fill="url(#paint2_linear_127_1452)"/>
<g opacity="0.5">
<path d="M334.48 76.677C332.58 75.087 329.26 74.027 325.48 74.027C324.9 74.027 324.34 74.027 323.79 74.107C323.79 74.107 323.79 74.057 323.79 74.027C323.783 72.3667 323.317 70.7406 322.443 69.3287C321.57 67.9168 320.323 66.7741 318.84 66.027C318.084 65.6399 317.452 65.0487 317.015 64.3204C316.579 63.5921 316.355 62.756 316.37 61.907C316.37 58.2496 314.917 54.7421 312.331 52.156C309.745 49.5698 306.237 48.117 302.58 48.117C302.34 48.117 302.1 48.117 301.86 48.117C301.86 47.987 301.86 47.857 301.86 47.727C301.874 43.4817 300.358 39.3734 297.592 36.1537C294.825 32.9339 290.991 30.8179 286.792 30.1927C282.593 29.5675 278.31 30.475 274.725 32.7491C271.14 35.0232 268.494 38.5119 267.27 42.577C266.963 43.6205 266.285 44.5162 265.365 45.0961C264.444 45.676 263.344 45.9003 262.27 45.727C260.48 45.4471 258.65 45.5579 256.907 46.0516C255.164 46.5454 253.548 47.4104 252.171 48.5874C250.793 49.7644 249.687 51.2255 248.927 52.8704C248.168 54.5154 247.773 56.3051 247.77 58.117C247.77 58.437 247.77 58.747 247.82 59.047C247.51 59.047 247.2 59.047 246.89 59.047C244.031 59.047 241.289 60.1827 239.267 62.2044C237.246 64.226 236.11 66.9679 236.11 69.827C236.11 69.957 236.11 70.077 236.11 70.207C234.999 69.3791 233.656 68.921 232.27 68.897C231.268 68.897 230.279 69.1216 229.376 69.5542C228.473 69.9869 227.678 70.6166 227.05 71.397C226.604 71.9692 226.029 72.4284 225.372 72.7376C224.716 73.0468 223.995 73.1973 223.27 73.177C222.87 73.177 222.46 73.177 222.05 73.177C217.05 73.177 212.84 74.627 211 76.707L334.48 76.677Z" fill="white"/>
<path d="M333.35 75.907C330.933 74.6104 328.222 73.9627 325.48 74.027C324.9 74.027 324.34 74.027 323.79 74.107C323.79 74.107 323.79 74.057 323.79 74.027C323.783 72.3667 323.317 70.7406 322.444 69.3287C321.57 67.9168 320.323 66.7741 318.84 66.027C318.084 65.6399 317.452 65.0487 317.016 64.3204C316.579 63.5921 316.355 62.756 316.37 61.907C316.376 58.6028 315.19 55.4074 313.03 52.907H312.63C312.39 52.907 312.15 52.907 311.91 52.907C311.91 52.777 311.91 52.647 311.91 52.517C311.91 52.387 311.91 51.987 311.91 51.717C309.377 49.3803 306.056 48.0842 302.61 48.087C302.37 48.087 302.13 48.087 301.89 48.087C301.89 47.957 301.89 47.827 301.89 47.697C301.893 45.3158 301.412 42.9588 300.477 40.7689C299.542 38.579 298.172 36.6017 296.45 34.957C295.727 34.8616 294.999 34.8115 294.27 34.807C290.475 34.8075 286.781 36.029 283.734 38.2908C280.687 40.5526 278.449 43.7348 277.35 47.367C277.045 48.4111 276.367 49.3071 275.446 49.8856C274.525 50.4642 273.423 50.6852 272.35 50.507C270.559 50.227 268.729 50.338 266.985 50.8323C265.241 51.3266 263.625 52.1926 262.247 53.3707C260.869 54.5488 259.763 56.0111 259.004 57.6573C258.245 59.3034 257.851 61.0943 257.85 62.907C257.85 63.217 257.85 63.527 257.9 63.837C257.59 63.837 257.28 63.837 256.97 63.837C254.111 63.837 251.369 64.9727 249.348 66.9944C247.326 69.016 246.19 71.7579 246.19 74.617C246.19 74.747 246.19 74.867 246.19 74.997C244.798 73.9967 243.076 73.5678 241.378 73.7985C239.68 74.0291 238.135 74.9018 237.06 76.237C236.917 76.4098 236.764 76.5735 236.6 76.727H333.57C333.514 76.4493 333.441 76.1754 333.35 75.907Z" fill="url(#paint3_linear_127_1452)"/>
</g>
<g opacity="0.49">
<path d="M241.15 130.327C239.054 128.572 235.398 127.406 231.23 127.406C230.599 127.406 229.982 127.438 229.374 127.492C229.374 127.461 229.374 127.433 229.374 127.406C229.376 125.571 228.867 123.771 227.906 122.207C226.945 120.642 225.569 119.376 223.931 118.547C223.1 118.12 222.405 117.469 221.924 116.667C221.443 115.866 221.196 114.946 221.209 114.011V113.998C221.209 109.969 219.609 106.105 216.76 103.256C213.911 100.407 210.047 98.8064 206.018 98.8064C205.751 98.8064 205.492 98.8064 205.229 98.8426C205.229 98.702 205.229 98.5569 205.229 98.4163C205.214 93.7551 203.528 89.2537 200.478 85.7296C197.427 82.2054 193.213 79.8922 188.602 79.2099C183.991 78.5275 179.289 79.5214 175.348 82.011C171.407 84.5006 168.49 88.3208 167.126 92.7779C166.783 93.9273 166.033 94.912 165.016 95.5476C163.998 96.1831 162.784 96.4257 161.601 96.2299C159.626 95.9189 157.606 96.0401 155.682 96.5853C153.758 97.1304 151.975 98.0864 150.456 99.3874C148.938 100.688 147.719 102.303 146.885 104.121C146.051 105.939 145.621 107.915 145.625 109.915C145.625 110.26 145.652 110.6 145.679 110.94C145.339 110.913 144.999 110.89 144.654 110.89C141.503 110.89 138.481 112.142 136.252 114.37C134.024 116.597 132.771 119.619 132.77 122.77C132.77 122.911 132.77 123.047 132.792 123.188C131.261 122.083 129.364 121.609 127.493 121.862C125.622 122.115 123.919 123.077 122.736 124.549C122.242 125.186 121.602 125.696 120.871 126.036C120.139 126.376 119.337 126.537 118.531 126.504C118.077 126.504 117.624 126.472 117.17 126.472C111.727 126.472 107.023 128.078 105 130.368L241.15 130.327Z" fill="white"/>
<path d="M239.907 129.493C237.753 128.227 234.677 127.424 231.23 127.424C230.599 127.424 229.982 127.456 229.374 127.511C229.374 127.479 229.374 127.452 229.374 127.424C229.376 125.589 228.867 123.789 227.906 122.225C226.945 120.661 225.569 119.394 223.931 118.565C223.1 118.138 222.405 117.487 221.924 116.685C221.443 115.884 221.196 114.964 221.209 114.029V113.998C221.211 110.364 219.905 106.851 217.531 104.1C217.381 104.1 217.24 104.1 217.077 104.1C216.81 104.1 216.546 104.127 216.283 104.141C216.283 104 216.283 103.855 216.283 103.714C216.283 103.415 216.252 103.125 216.238 102.83C213.444 100.257 209.785 98.8284 205.986 98.829C205.719 98.829 205.46 98.829 205.193 98.8653C205.193 98.7247 205.193 98.5796 205.193 98.4389C205.207 95.8127 204.688 93.2109 203.666 90.7913C202.645 88.3718 201.142 86.185 199.25 84.3635C198.455 84.2584 197.653 84.2039 196.851 84.2002C192.669 84.2004 188.599 85.5461 185.242 88.0385C181.884 90.5308 179.418 94.0374 178.208 98.0398C177.868 99.188 177.121 100.173 176.108 100.811C175.094 101.449 173.883 101.696 172.701 101.505C170.727 101.195 168.71 101.315 166.787 101.859C164.865 102.403 163.083 103.357 161.565 104.656C160.046 105.954 158.827 107.566 157.992 109.381C157.156 111.196 156.724 113.17 156.725 115.168C156.725 115.513 156.752 115.853 156.779 116.193C156.439 116.166 156.099 116.143 155.754 116.143C154.194 116.143 152.648 116.449 151.206 117.046C149.765 117.643 148.454 118.518 147.351 119.621C146.247 120.724 145.372 122.034 144.774 123.476C144.177 124.917 143.87 126.463 143.87 128.023C143.87 128.164 143.87 128.3 143.892 128.44C142.361 127.336 140.464 126.862 138.593 127.115C136.721 127.368 135.019 128.33 133.836 129.801C133.677 129.994 133.506 130.175 133.323 130.346H240.152C240.075 130.055 240.002 129.774 239.907 129.493Z" fill="url(#paint4_linear_127_1452)"/>
</g>
<path d="M356.975 158.454C356.817 161.012 356.658 165.169 356.024 166.927C355.549 168.526 353.489 171.564 352.696 171.883C351.904 172.203 350.161 174.441 350.002 175.241C349.844 176.04 342.395 186.271 342.237 186.271C342.078 186.271 339.067 189.789 338.433 190.428C337.641 191.227 334.789 192.826 333.996 193.306C333.204 193.785 331.619 195.704 330.668 196.343C329.717 197.143 325.439 202.258 323.695 203.537C322.428 204.496 321.16 205.296 320.843 205.616C321.16 208.653 321.794 215.208 321.318 217.446C320.843 220.323 320.05 222.721 320.05 223.041C320.05 223.361 319.258 231.514 319.575 233.113C319.733 234.712 319.575 240.307 319.258 240.946C318.941 241.586 319.1 243.824 319.258 244.783C319.416 249.899 319.575 260.45 319.258 261.41C318.941 262.209 318.941 265.087 318.941 266.366V276.917C318.941 277.876 318.624 278.516 318.941 280.594C319.258 282.193 319.1 286.829 318.941 289.067C319.1 291.945 319.575 297.86 319.892 299.139C320.209 300.737 320.05 313.846 320.367 316.404C320.684 318.483 321.16 323.758 321.318 326.156C319.1 326.156 314.504 326.156 314.187 326.956C313.87 327.915 314.504 329.993 314.187 330.792C313.87 331.592 311.334 335.908 308.957 337.187C307.055 338.146 305.946 338.786 305.629 338.946C305.471 339.266 305.312 340.225 306.105 340.704C307.214 341.504 307.214 341.983 308.799 341.983C310.383 341.983 312.602 342.303 313.711 343.582C314.821 344.861 314.821 345.66 316.089 346.14C317.356 346.619 320.526 347.579 320.843 347.898C321.477 348.218 321.952 348.378 322.269 348.378H266.327L273.142 346.779C273.459 342.303 273.776 333.031 273.459 332.071C273.142 330.793 272.666 330.633 272.508 329.514C272.35 328.395 273.3 326.796 272.825 326.636C272.508 326.476 272.033 324.238 272.508 323.598C272.825 322.799 273.3 317.044 272.825 316.244C272.508 315.445 272.35 309.69 272.033 308.411C271.874 307.132 271.716 305.373 271.716 304.414C271.716 303.455 272.033 297.7 271.716 297.06C271.399 296.581 271.716 294.502 272.033 294.183C272.35 293.863 272.033 292.904 272.033 292.584C272.033 292.264 274.41 290.825 274.251 290.346C274.093 290.026 274.41 289.227 273.934 289.227C273.459 289.227 272.35 285.23 272.666 283.951C272.983 282.672 274.251 281.073 274.251 280.114C274.251 279.155 273.776 276.277 273.142 275.478C272.667 274.679 271.874 274.039 272.191 273.4C272.508 272.92 273.142 272.281 273.142 270.842C273.142 269.403 272.983 266.845 272.825 266.206C272.666 265.726 272.508 263.488 272.825 261.889C273.142 260.291 272.983 258.212 272.825 257.893C272.666 257.573 271.874 254.855 271.874 253.896C271.874 252.937 270.923 249.739 271.874 248.3C272.825 246.862 274.093 245.423 274.251 243.984C274.41 242.545 275.678 238.708 275.994 237.749C276.311 236.79 276.311 236.31 276.311 235.671V231.674C276.311 230.235 276.628 230.715 275.994 229.596C275.202 228.477 274.41 227.198 274.885 226.239C275.361 225.279 275.361 225.12 275.361 224.48C275.361 223.681 275.836 223.041 275.361 222.082C274.885 221.283 274.41 221.283 274.251 221.283C273.142 224.64 270.765 231.354 270.606 231.834C270.448 232.633 270.289 239.348 269.497 240.787C268.705 242.225 267.278 246.382 267.12 246.702C266.961 246.862 266.486 247.661 266.169 248.141L266.011 248.94C267.12 249.26 269.18 250.059 268.388 251.338C267.595 252.617 266.803 253.096 266.644 253.096C266.486 253.416 266.169 254.216 266.644 254.375C267.12 254.535 268.229 256.614 268.071 258.692C267.912 260.93 267.595 264.767 267.595 266.685C267.595 268.764 267.595 274.519 267.437 275.158C267.278 275.638 266.961 276.277 266.961 276.597C266.961 276.917 267.278 278.196 266.961 278.835C266.644 279.315 265.218 279.954 264.584 279.315C264.109 278.835 263.95 278.036 263.792 277.716C263.792 277.077 263.633 275.638 263.475 275.478C263.316 275.318 262.683 274.039 263 272.121C263.158 270.682 263 269.563 263 269.243C262.683 268.604 261.89 267.485 261.573 267.485C261.256 267.485 259.196 269.243 258.721 269.243C258.245 269.243 257.611 269.243 257.136 268.284C256.661 267.485 255.393 266.046 254.759 265.406C254.283 265.087 253.491 264.447 253.65 263.328C253.808 262.049 255.71 259.171 256.027 258.052C256.344 256.933 257.136 256.294 257.136 255.495C257.136 254.695 257.611 239.188 257.611 238.389C257.611 237.589 257.77 234.871 258.087 233.593C258.404 232.314 258.879 231.354 259.513 229.916C260.305 228.477 262.207 225.12 262.683 223.361C263 221.602 263.95 218.085 264.426 216.966C264.901 215.847 264.901 212.01 265.535 210.731C266.011 209.452 266.803 203.218 269.972 201.619C273.142 200.02 277.262 199.221 277.579 199.221C277.896 199.221 284.869 195.224 285.186 193.945C285.503 192.986 285.344 191.707 285.186 191.227C283.601 190.588 280.59 189.149 280.59 188.67C280.59 188.19 281.541 187.071 281.7 186.112C281.858 185.152 282.017 184.993 281.7 183.873C281.383 182.754 280.749 176.52 282.809 173.482C284.394 170.924 287.405 169.006 288.831 168.366C290.257 168.047 293.268 167.727 293.902 168.046C294.853 168.366 298.815 172.043 299.132 172.843C299.449 173.642 300.875 175.241 301.192 178.118C301.35 180.996 301.192 185.632 301.667 186.751C302.143 187.55 302.618 190.108 302.935 191.387C302.935 191.707 302.935 192.347 302.46 192.347H299.132C299.132 192.666 299.132 193.306 299.449 193.306C299.924 193.306 301.192 193.625 301.826 193.466C302.301 193.306 305.946 192.027 306.263 192.027C306.58 192.027 308.323 191.227 308.64 190.908C308.957 190.588 313.553 190.108 314.345 190.588C314.979 190.908 315.296 191.867 315.455 192.347C318.149 190.588 323.537 187.071 324.012 186.911C324.488 186.751 325.439 185.952 325.597 185.312C325.755 184.513 328.133 180.996 331.461 179.717C334.155 178.758 336.849 176.2 337.8 174.921C339.86 173.162 343.98 169.805 344.297 169.485C344.772 169.166 344.772 167.887 344.297 167.247C343.822 166.768 342.871 164.21 342.871 163.091C342.871 161.972 342.871 158.774 342.554 157.495C342.237 156.216 342.237 155.257 342.871 155.257C343.663 155.257 345.565 156.056 346.04 158.135C346.199 159.414 346.357 159.733 346.199 159.893C346.357 160.053 346.674 160.213 346.833 158.934C346.991 157.335 347.308 154.138 347.308 153.019C347.308 151.9 347.467 149.662 347.625 149.022C347.784 148.223 347.783 147.743 348.734 147.903C349.527 148.063 349.685 148.383 349.685 148.383C349.685 147.583 349.844 146.145 350.795 146.304C351.904 146.624 352.379 147.423 352.379 147.903C352.379 148.383 352.379 148.702 352.696 148.383C353.013 148.223 353.489 147.104 353.964 148.063C354.439 149.022 355.073 150.301 354.915 151.42C354.756 152.22 354.915 153.179 354.915 153.498C355.232 153.179 355.866 152.859 356.183 153.179C356.5 153.498 357.133 155.897 356.975 158.454Z" fill="#6C6FD7"/>
<path d="M88.6605 262.279L87.769 366.072H147.489L145.437 319.088L144.022 260.457L142.239 257.467V250.348C142.239 248.554 141.065 227.568 141.065 226.144C140.867 223.982 141.274 221.807 142.239 219.865C142.696 218.803 142.805 217.622 142.551 216.493C142.296 215.364 141.692 214.346 140.824 213.586C140.67 213.417 140.554 213.217 140.484 212.998C140.415 212.78 140.394 212.549 140.422 212.321C140.45 212.094 140.527 211.875 140.648 211.68C140.769 211.486 140.93 211.32 141.121 211.194C141.572 210.723 141.912 210.156 142.115 209.535C142.318 208.914 142.38 208.255 142.296 207.606C142.213 207.073 142.25 206.527 142.404 206.01C142.559 205.492 142.826 205.016 143.187 204.617C144.079 203.421 143.484 202.21 142.296 201.313C141.107 200.416 142.013 198.025 142.296 197.128C142.579 196.231 143.782 196.829 144.673 196.53C145.565 196.231 148.211 190.251 147.037 188.756C146.056 187.589 145.259 186.278 144.673 184.869C144.376 183.972 145.848 180.085 146.088 178.889C146.329 177.693 147.277 175.899 149.938 172.895C152.598 169.891 150.235 169.008 149.938 168.709C149.64 168.41 147.857 169.905 148.155 168.111C148.217 166.146 147.814 164.194 146.98 162.416C146.683 162.117 146.088 162.117 146.386 161.22C146.569 159.354 146.241 157.473 145.437 155.781C144.56 153.389 139.239 154.585 137.753 154.585C136.267 154.585 132.092 159.369 131.852 160.28C131.611 161.192 130.96 160.779 130.663 160.579C129.966 159.23 129.176 157.931 128.3 156.692C127.353 155.87 126.243 155.259 125.045 154.898C124.671 154.875 124.31 154.752 123.999 154.542C123.688 154.332 123.438 154.042 123.276 153.703C121.342 152.112 119.261 150.71 117.063 149.517L117.36 144.434H119.129C120.077 144.434 120.12 142.626 120.021 141.729C119.724 141.43 119.186 140.832 119.426 140.832C119.667 140.832 119.426 138.141 119.426 136.646C119.426 135.151 115.889 131.563 114.997 130.666C114.105 129.769 112.336 130.367 111.148 130.367C109.959 130.367 106.718 134.254 105.827 135.151C104.935 136.048 105.345 138.24 105.544 139.337C105.613 139.58 105.623 139.838 105.571 140.086C105.519 140.334 105.408 140.566 105.246 140.76C104.652 141.358 104.949 142.554 104.949 143.152C104.949 143.75 105.926 143.352 106.364 143.152C106.503 143.545 106.603 143.95 106.662 144.363C106.711 145.109 106.501 145.849 106.067 146.456C105.862 146.606 105.614 146.687 105.36 146.687C105.105 146.687 104.858 146.606 104.652 146.456L100.803 141.657C100.024 141.358 98.496 140.533 98.7366 139.564C99.0338 138.369 97.8592 128.502 97.562 127.306C97.2648 126.11 97.2648 127.007 97.2648 122.821C97.1227 119.105 96.7255 115.404 96.0761 111.744V105.223C96.6704 105.422 97.8592 105.579 97.8592 104.625C97.8592 103.429 100.506 99.8413 100.803 99.8413C101.1 99.8413 102.289 96.8514 100.803 96.5524C100.4 96.4588 100.04 96.2304 99.7832 95.9045C99.5261 95.5786 99.3866 95.1745 99.3876 94.7584L101.454 79.7946H100.152V78.3708C101.225 78.5416 102.319 78.5416 103.393 78.3708C103.691 78.2301 103.954 78.022 104.16 77.7628C104.366 77.5035 104.51 77.2001 104.581 76.8759V69.9279H92.1702C92.4626 72.2538 92.9358 74.5531 93.5853 76.8047C93.8391 77.4025 94.2501 77.9194 94.7741 78.2996H97.7318V79.7234H97.1374C96.9393 83.9947 96.5431 92.7651 96.5431 93.4913C96.5431 94.2174 94.7741 94.6872 93.5853 95.2852C92.3966 95.8832 91.6607 98.4033 91.6607 102.233C91.4779 106.084 90.88 109.903 89.8776 113.623C89.4192 117.597 89.2253 121.597 89.2973 125.597V131.876C89.521 136.802 90.1124 141.704 91.0663 146.541C91.849 149.374 92.3469 152.279 92.5523 155.212C92.5414 157.482 93.0245 159.727 93.9675 161.79C94.9156 163.939 94.9581 168.666 94.859 170.759L92.7787 177.351L91.0097 175.557L89.821 179.743L91.6041 180.64C91.8022 181.039 92.0711 181.95 91.6041 182.434C91.1371 182.918 89.821 188.015 89.2408 190.507L86 194.664L92.7928 198.85L93.9816 198.252C94.576 201.1 95.9345 207.165 96.6421 208.133C97.5337 209.329 96.9393 216.206 95.7506 220.392C94.5618 224.578 99.0055 240.738 99.897 242.233C100.69 243.8 100.996 245.571 100.774 247.315C100.548 247.8 94.1797 250.704 91.0239 252.099V257.794L88.6605 262.279Z" fill="#6C6FD7"/>
<path fill-rule="evenodd" clip-rule="evenodd" d="M170.679 366.072C170.735 364.947 171.183 363.878 171.946 363.051C172.708 362.224 173.736 361.691 174.851 361.547C178.663 361.202 179.759 359.104 178.663 358.054C178.265 357.575 177.968 357.02 177.791 356.423C177.613 355.825 177.56 355.197 177.632 354.578C177.632 354.349 177.632 354.07 177.632 353.726C177.978 352.111 177.704 350.424 176.863 349.003C175.473 347.265 176.52 340.986 177.567 339.592C178.079 339.091 178.664 338.671 179.301 338.346C181.592 337.001 185.126 334.902 184.864 330.525C184.766 328.885 184.602 327.245 184.422 325.72C183.98 321.621 183.604 318.014 184.864 316.243C186.909 312.659 187.644 308.473 186.942 304.405C186.255 299.863 184.864 288.008 184.864 286.369C184.864 286.156 184.864 285.811 184.864 285.401C184.864 282.368 185.028 274.826 183.801 274.514C182.977 274.418 182.143 274.566 181.402 274.939C180.66 275.312 180.044 275.893 179.628 276.613C178.941 278.007 176.503 279.4 175.8 278.695C175.538 276.418 175.538 274.118 175.8 271.841C176.045 267.529 176.323 262.594 175.8 261.626C175.431 260.984 174.878 260.467 174.213 260.143C173.548 259.818 172.802 259.701 172.069 259.806C170.679 259.806 165.803 256.314 165.803 251.789C165.803 250.149 165.95 248.706 166.065 247.378C166.436 245.252 166.347 243.071 165.803 240.983C163.868 235.877 163.037 230.416 163.365 224.964C163.447 224.242 163.529 223.521 163.594 222.783C164.216 216.749 164.87 210.404 165.803 208.239C166.22 207.384 166.719 206.572 167.292 205.813C168.873 203.977 169.815 201.674 169.975 199.254C170.066 197.139 170.406 195.042 170.99 193.007C171.399 191.367 171.71 190.187 171.366 189.859C170.679 189.154 167.194 184.628 169.288 181.136C171.516 177.968 174.078 175.049 176.929 172.429C178.794 170.462 182.917 166.576 184.586 166.855C186.664 167.199 190.836 167.56 190.836 166.855C190.836 166.15 192.57 164.772 194.321 164.067C195.712 163.51 198.837 162.214 200.227 161.624C200.715 160.842 200.973 159.939 200.973 159.017C200.973 158.095 200.715 157.192 200.227 156.41C199.493 155.327 198.837 154.193 198.264 153.016C197.609 151.77 197.135 150.835 196.742 150.835C196.055 150.835 195.352 148.736 195.712 147.687C196.288 144.817 196.633 141.906 196.742 138.981C196.742 136.898 202.665 129.93 206.134 129.569C209.602 129.208 217.259 131.323 217.587 135.144C217.767 137.062 217.947 138.636 218.077 139.817C218.208 140.997 218.29 141.768 218.29 142.112C218.313 142.46 218.362 142.805 218.437 143.145C218.723 144.169 218.789 145.242 218.634 146.293C218.371 147.198 218.255 148.139 218.29 149.081C217.581 151.872 216.531 154.565 215.165 157.099C214.356 160.524 214.004 164.042 214.118 167.56C214.462 169.642 215.509 170.691 215.852 170.691C216.196 170.691 216.294 171.019 216.703 171.446C217.417 172.314 218.317 173.009 219.337 173.479C220.728 173.823 227.682 175.922 228.712 180.792C229.076 182.534 229.624 184.233 230.348 185.858C230.92 186.852 231.182 187.994 231.101 189.137C231.019 189.629 230.921 190.039 230.823 190.416C230.381 191.833 230.48 193.364 231.101 194.712C232.148 197.5 232.148 209.699 232.148 210.748C232.148 211.797 236.32 215.962 236.664 216.306C237.007 216.651 237.367 216.306 237.711 214.224C237.924 212.945 238.136 210.24 238.349 207.534C238.48 205.895 238.611 204.075 238.758 202.73C238.856 201.714 239.02 200.549 239.167 199.451C239.56 196.647 239.936 193.86 239.445 193.368C238.969 192.652 238.66 191.839 238.541 190.987C238.422 190.135 238.497 189.268 238.758 188.449C239.347 187.018 239.583 185.465 239.445 183.923V179.742C239.411 178.553 239.179 177.378 238.758 176.266L243.405 163.297L247.92 176.184C247.545 176.27 247.194 176.441 246.894 176.682C246.594 176.923 246.352 177.23 246.186 177.578C246.018 178.665 246.018 179.771 246.186 180.857C246.186 181.431 246.186 181.972 246.186 182.415C246.22 182.967 246.297 183.515 246.415 184.055C246.742 185.891 247.201 188.432 246.186 189.695C244.795 191.433 244.452 192.482 244.795 193.171C245.139 193.86 243.977 213.617 243.405 223.488C244.379 224.261 245.144 225.266 245.629 226.412C246.115 227.558 246.307 228.808 246.186 230.047C245.483 233.884 244.452 236.327 243.405 236.327C242.513 236.452 241.671 236.814 240.967 237.376C241.196 242.606 241.523 253.773 240.967 256.888C240.869 257.462 240.754 258.052 240.64 258.659C239.916 261.609 239.559 264.638 239.576 267.677C240.101 272.428 240.101 277.223 239.576 281.975C238.755 286.577 238.29 291.237 238.185 295.912C238.163 297.087 238.059 298.259 237.875 299.42C237.365 301.593 237.473 303.865 238.185 305.979C239.576 309.111 239.576 313.997 239.576 316.079C239.576 317.047 239.282 319.9 238.954 322.949C238.595 326.475 238.185 330.262 238.185 331.771C238.185 334.542 244.092 338.739 247.577 341.166C248.571 341.831 249.623 342.407 250.718 342.888C252.796 343.839 254.4 344.527 254.874 347.446C255.076 348.342 255.474 349.182 256.04 349.906C256.606 350.629 257.326 351.217 258.146 351.627C259.341 352.43 260.388 353.119 260.388 354.414C260.36 355.361 260.2 356.299 259.913 357.202C259.57 358.399 259.324 359.218 260.388 359.645C262.122 360.333 263.873 362.071 263.873 363.465V365.908L170.679 366.072ZM181.804 200.222C181.69 202.304 181.804 206.78 182.835 207.534C184.475 209.045 185.679 210.971 186.32 213.109C186.32 213.503 185.977 213.896 185.584 214.355C185.153 214.696 184.829 215.154 184.652 215.675C184.475 216.196 184.452 216.757 184.586 217.29C184.898 218.154 184.996 219.081 184.874 219.992C184.751 220.903 184.411 221.77 183.882 222.521C183.26 223.52 182.512 224.435 181.657 225.243C180.021 226.882 178.189 228.915 177.976 230.883C177.701 232.679 177.302 234.454 176.782 236.195C176.341 237.527 176.04 238.901 175.882 240.295C175.882 242.033 174.851 243.082 174.147 241.688C173.352 239.084 172.885 236.391 172.757 233.67C172.757 233.146 172.953 231.047 173.198 228.424C173.607 224.078 174.147 218.29 174.147 215.897C174.147 212.076 176.929 205.108 178.663 203.353L181.804 200.222Z" fill="#6C6FD7"/>
<path d="M495.601 207.863C495.423 207.423 495.274 206.878 495.384 206.442C495.537 205.835 495.238 205.561 494.849 205.374C494.371 205.144 493.931 204.854 493.465 204.605C492.219 203.937 490.815 203.56 489.745 202.56C489.557 202.383 489.319 202.268 489.063 202.232C488.209 202.162 487.562 201.696 486.939 201.189C485.522 200.05 483.968 199.13 482.457 198.146C481.687 197.645 480.95 197.089 480.592 196.208C480.429 195.818 480.266 195.493 479.911 195.25C479.663 195.082 479.457 194.857 479.311 194.594C478.944 193.921 478.386 193.734 477.664 193.774C476.942 193.813 476.932 193.79 477.113 193.04C477.164 192.79 477.176 192.533 477.151 192.279C477.136 192.018 477.032 191.812 476.705 191.913C476.174 192.077 476.264 191.781 476.421 191.503C476.731 190.959 476.71 190.355 476.767 189.769C476.793 189.51 476.751 189.236 476.475 189.113C476.148 188.969 475.993 189.252 475.873 189.451C475.311 190.383 474.496 191.06 473.669 191.728C473.429 191.905 473.219 192.118 473.046 192.361C472.491 193.209 472.452 193.132 471.489 193.008C470.711 192.908 469.907 192.694 469.115 192.876C467.875 193.16 466.644 193.49 465.494 194.062C465.03 194.294 464.513 194.492 464.023 194.3C462.976 193.895 461.971 194.179 460.956 194.386C460.644 194.45 460.289 194.55 460.283 194.952C460.276 195.354 460.639 195.36 460.925 195.429C461.043 195.443 461.154 195.494 461.242 195.574C461.33 195.655 461.391 195.761 461.415 195.879C461.459 196.174 461.203 196.266 460.989 196.356C459.963 196.786 458.864 196.906 457.788 197.148C456.574 197.426 455.291 197.376 454.124 197.913C453.917 198.008 453.709 198.088 453.738 198.344C453.773 198.672 453.575 198.854 453.412 199.078C453.287 199.242 453.131 199.434 453.263 199.658C453.395 199.883 453.654 199.903 453.886 199.822C454.263 199.694 454.492 199.79 454.608 200.19C454.684 200.369 454.783 200.538 454.902 200.692C454.584 200.829 454.231 200.859 453.895 200.779C453.078 200.561 452.248 200.402 451.39 200.57C451.175 200.611 450.9 200.6 450.854 200.823C450.668 201.771 449.804 201.88 449.152 202.175C448.5 202.47 447.809 202.511 447.372 203.304C446.962 204.045 446.898 204.303 447.748 204.577C447.898 204.626 448.119 204.591 448.142 204.823C448.162 205.018 448.001 205.126 447.866 205.225C447.398 205.559 446.899 205.846 446.375 206.081C445.63 206.427 445.331 206.245 445.284 205.408C445.273 205.195 445.274 204.982 445.284 204.769C445.323 203.496 445.22 202.267 444.488 201.159C444.085 200.548 444.189 199.911 444.639 199.322C444.921 198.951 445.157 198.553 445.173 198.052C445.217 196.689 446.122 195.977 447.461 196.228C447.668 196.273 447.879 196.296 448.091 196.297C448.755 196.284 449.072 196.008 449.126 195.344C449.132 195.195 449.168 195.05 449.233 194.916C449.298 194.782 449.39 194.664 449.503 194.568C449.671 194.435 449.798 194.259 449.871 194.058C450.096 193.401 450.328 192.745 450.56 192.089C450.65 191.86 450.692 191.615 450.683 191.369C450.674 191.123 450.614 190.882 450.508 190.66C450.333 190.304 450.376 189.986 450.443 189.615C450.546 189.036 451.041 188.619 451.039 188.014C451.039 187.246 451.078 186.475 451.016 185.717C450.93 184.647 450.144 183.184 448.827 183.204C448.613 183.18 448.413 183.088 448.255 182.941C446.813 181.891 445.15 182.08 443.661 182.5C442.009 182.963 440.72 184.164 439.779 185.655C439.578 185.983 439.388 186.101 439.125 185.714C438.921 185.415 438.699 185.129 438.462 184.856C438.253 184.596 437.952 184.428 437.622 184.388C437.292 184.348 436.96 184.439 436.695 184.641C436.411 184.86 436.139 185.094 435.878 185.341C434.793 186.326 434.094 187.658 432.878 188.527C432.303 188.939 431.734 189.12 431.102 188.855C430.019 188.398 429.107 188.721 428.161 189.3C426.782 190.15 425.78 191.574 424.095 191.964C423.579 192.084 423.126 192.384 422.664 192.652C421.893 193.095 421.125 193.526 420.167 193.485C419.647 193.464 419.129 193.665 418.631 193.867C417.134 194.473 415.646 195.089 414.293 195.985C413.268 196.663 412.113 197.134 411.224 198.028C409.273 200.026 407.666 202.334 406.466 204.859C405.861 206.104 405.145 207.31 404.096 208.232C403.198 209.023 402.836 209.858 403.198 210.986C403.361 211.508 403.301 211.634 402.74 211.518C399.73 210.888 396.717 210.274 393.701 209.675C389.057 208.757 384.44 207.707 379.811 206.691C378.733 206.453 377.648 206.247 376.561 206.048C376.259 205.994 375.907 205.933 375.744 206.335C375.425 207.141 375.646 207.543 376.499 207.692C377.854 207.927 379.207 208.197 380.545 208.486C382.272 208.858 383.994 209.306 385.726 209.674C386.656 209.876 387.566 210.148 388.491 210.351C390.225 210.73 391.988 210.98 393.732 211.327C394.812 211.544 395.866 211.892 396.947 212.095C400.869 212.833 404.748 213.749 408.645 214.595C408.824 214.635 409.075 214.612 409.108 214.851C409.145 215.119 408.884 215.179 408.703 215.276C407.58 215.834 406.448 216.375 405.328 216.936C404.474 217.365 403.639 217.852 402.714 218.085C401.997 218.284 401.322 218.614 400.722 219.056C400.313 219.341 400.001 219.738 400.081 220.293C400.1 220.398 400.081 220.507 400.027 220.599C399.972 220.691 399.887 220.761 399.786 220.795C399.541 220.918 399.278 221.008 399.029 221.123C398.389 221.427 398.325 221.586 398.683 222.198C399.858 224.199 401.331 225.899 403.475 226.913C403.706 227.022 403.985 227.103 404.129 227.436L403.268 227.582C401.552 227.862 399.815 228.026 398.132 228.483C396.699 228.87 395.271 229.277 394.047 230.185C393.79 230.378 393.484 230.496 393.165 230.527C391.857 230.648 390.713 231.106 389.784 232.07C389.671 232.198 389.533 232.3 389.378 232.371C388.725 232.635 388.561 233.227 388.65 233.788C388.718 234.251 388.527 234.37 388.231 234.569C387.318 235.182 386.318 235.653 385.489 236.41C384.868 236.977 384.059 237.294 383.218 237.297C382.145 237.307 381.824 237.44 381.774 238.508C381.713 239.75 381.12 240.508 380.1 241.049C379.914 241.152 379.739 241.273 379.576 241.41C378.661 242.156 377.615 242.445 376.442 242.457C374.128 242.483 371.788 242.522 369.535 243.023C365.613 243.894 361.997 245.474 358.985 248.259C356.467 250.59 353.554 250.894 350.38 249.883C349.434 249.581 348.558 248.922 347.469 249.176C347.363 249.177 347.261 249.137 347.184 249.063C346.423 248.407 345.529 247.885 345.086 246.886C344.636 245.911 343.893 245.103 342.962 244.575C342.743 244.445 342.495 244.333 342.238 244.474C341.95 244.629 342.03 244.914 342.037 245.16C342.057 245.481 342.135 245.795 342.267 246.087C342.352 246.299 342.527 246.525 342.346 246.743C342.164 246.962 341.949 246.768 341.749 246.743C341.189 246.661 340.932 246.907 340.999 247.442C341.109 248.213 341.079 248.22 340.308 248.353C339.874 248.441 339.423 248.371 339.035 248.156C338.171 247.701 337.354 247.239 336.537 246.717C336.21 246.507 335.86 246.138 335.445 246.427C335.058 246.694 335.36 247.083 335.411 247.427C335.48 247.872 335.151 248.18 334.775 247.972C334.091 247.591 333.305 247.363 332.754 246.774C332.332 246.327 331.865 246.072 331.238 246.149C330.963 246.184 330.747 246.028 330.56 245.853C330.372 245.677 330.084 245.36 329.798 245.639C329.512 245.918 329.806 246.202 329.971 246.422C330.251 246.797 330.56 247.15 330.893 247.478C331.018 247.598 331.096 247.758 331.112 247.931C331.128 248.103 331.082 248.276 330.981 248.417C330.783 248.745 330.545 248.402 330.339 248.32C329.988 248.179 329.608 248.075 329.306 248.32C328.906 248.648 328.541 248.597 328.128 248.404C327.952 248.326 327.768 248.271 327.579 248.239C327.487 248.21 327.387 248.21 327.295 248.239C327.203 248.269 327.121 248.326 327.063 248.404C326.927 248.6 327.037 248.779 327.156 248.929C327.569 249.44 327.96 249.978 328.499 250.372C329.885 251.386 331.277 252.388 332.658 253.41C334.916 255.084 337.212 256.675 339.89 257.633C340.919 257.971 341.966 258.249 343.027 258.465C345.611 259.062 348.199 259.69 350.882 259.51C352.617 259.392 354.353 259.206 356.023 258.69C358.539 257.92 361.028 257.062 363.564 256.347C365.743 255.748 367.769 254.689 369.509 253.241C371.004 251.99 372.613 250.927 374.478 250.32C375.306 250.052 376.104 249.704 376.904 249.362C377.878 248.933 378.896 248.617 379.94 248.418C380.463 248.325 380.561 248.497 380.386 248.958C380.316 249.159 380.261 249.364 380.223 249.573C379.988 250.695 380.252 251.033 381.375 251.05C381.587 251.05 381.8 251.056 382.012 251.069C382.53 251.091 382.788 251.366 382.769 251.89C382.757 252.165 382.697 252.438 382.682 252.71C382.664 253.068 382.568 253.469 382.875 253.739C383.217 254.035 383.347 254.431 383.529 254.816C384.13 256.129 384.527 257.568 385.537 258.645C386.789 259.994 388.354 260.978 389.875 261.963C390.975 262.678 392.274 263.04 393.598 263.196C394.63 263.325 395.655 263.506 396.67 263.739C398.24 264.081 399.833 264.309 401.436 264.423C401.305 264.742 401.083 264.804 400.923 264.934C399.952 265.724 398.884 266.438 398.833 267.887C398.822 268.205 398.562 268.395 398.32 268.584C397.245 269.417 396.068 270.098 394.949 270.864C393.779 271.666 392.318 272.057 391.406 273.202C390.874 273.873 390.173 274.186 389.477 274.577C388.464 275.119 387.485 275.721 386.545 276.381C385.906 276.847 385.168 277.139 384.563 277.649C383.958 278.16 383.929 278.586 384.434 279.18C384.971 279.81 385.686 280.182 386.431 280.504C386.581 280.568 386.803 280.574 386.821 280.778C386.839 280.981 386.63 281.04 386.494 281.142C385.364 282.01 384.027 282.582 382.976 283.557C381.563 284.869 379.641 285.516 378.429 287.087C378.329 287.199 378.207 287.289 378.071 287.35C377.015 287.89 375.958 288.431 374.896 288.958C373.376 289.712 371.806 290.378 370.386 291.31C369.162 292.116 367.86 292.787 366.819 293.904C365.829 294.973 365.703 294.857 366.479 296.082C366.92 296.78 366.884 296.917 366.175 297.311C364.987 297.967 363.802 298.638 362.611 299.29C362.355 299.431 362.141 299.601 362.074 299.885C362.02 300.093 361.921 300.286 361.784 300.45C361.647 300.614 361.474 300.745 361.279 300.833C360.376 301.306 359.873 301.916 360.217 303.037C360.418 303.693 358.761 313.132 359.466 313.116C364.35 313.005 371.239 304.328 376.121 303.919C377.358 303.816 378.609 303.88 379.852 303.872C380.377 303.872 380.906 304.003 381.406 303.983C381.966 303.96 382.542 303.852 383.1 303.901C385.132 304.08 387.173 304.05 389.204 304.085C395.32 304.185 401.438 304.146 407.556 304.151C414.544 304.151 421.532 304.151 428.52 304.165C429.158 304.165 429.491 303.952 429.664 303.335C429.837 302.718 430.197 302.225 430.466 301.67C430.984 300.607 431.885 299.808 432.408 298.753C432.898 297.777 433.519 296.888 434.132 295.995C434.744 295.103 434.785 293.638 434.132 292.726C433.478 291.814 432.865 290.911 432.171 290.052C431.383 289.067 430.898 287.816 429.659 287.24C428.586 286.748 427.881 285.576 426.541 285.542C426.172 285.532 426.19 285.183 426.247 284.886C426.422 284.021 427.073 283.521 427.692 283.002C429.043 281.87 430.406 280.752 431.762 279.623C432.061 279.374 432.375 279.093 432.264 278.66C432.131 278.097 432.137 277.51 432.284 276.95C432.543 275.861 432.401 274.685 433.14 273.684C433.462 273.217 433.869 272.816 434.339 272.5C435.045 272.045 435.086 271.748 434.534 271.138C434.137 270.691 433.66 270.322 433.128 270.052C432.502 269.739 431.883 269.412 431.264 269.087C430.965 268.923 430.947 268.776 431.264 268.613C431.833 268.328 432.39 268.021 432.962 267.742C433.797 267.337 434.122 266.653 433.712 265.833C433.434 265.275 433.676 265.093 434.107 264.955C434.733 264.756 435.372 264.596 436.004 264.41C437.432 263.987 438.248 262.323 437.704 260.949C437.642 260.794 437.506 260.644 437.596 260.47C438.076 259.539 437.936 258.444 438.441 257.499C438.692 257.028 438.914 256.746 439.436 256.678C440.639 256.522 441.807 256.16 442.888 255.609C443.094 255.505 443.379 255.394 443.451 255.213C443.737 254.539 444.354 254.423 444.931 254.244C445.438 254.08 445.99 254.047 446.465 253.832C447.609 253.31 448.691 253.547 449.781 253.996C452.224 254.98 454.675 255.965 457.297 256.347C459.11 256.605 460.883 257.023 462.655 257.458C463.399 257.646 464.095 257.989 464.698 258.465C464.887 258.601 465.041 258.781 465.146 258.989C465.251 259.198 465.303 259.429 465.299 259.663C465.335 260.904 464.776 261.976 464.397 263.108C464.386 263.16 464.362 263.209 464.329 263.252C464.296 263.294 464.253 263.328 464.205 263.351C464.157 263.375 464.104 263.387 464.05 263.386C463.997 263.386 463.944 263.374 463.896 263.35C462.883 263.022 462.85 263.049 462.425 264.007C461.771 265.447 461.365 266.973 460.827 268.452C460.642 268.963 460.337 269.524 460.7 270.111C460.799 270.275 460.662 270.385 460.536 270.477C460.414 270.561 460.275 270.617 460.128 270.642C459.982 270.666 459.832 270.657 459.69 270.616C459.11 270.503 458.507 270.341 457.966 270.731C457.769 270.881 457.536 270.973 457.291 270.999C457.046 271.025 456.798 270.984 456.575 270.879C455.964 270.615 455.725 270.894 455.549 271.422C455.071 272.835 454.704 274.283 454.451 275.753C454.322 276.38 454.267 277.021 454.288 277.661C454.32 278.125 454.521 278.263 454.959 278.1C455.938 277.747 456.894 277.333 457.822 276.862C458.291 276.616 458.779 276.257 459.271 276.232C460.427 276.178 460.905 275.412 461.407 274.572C461.909 273.732 462.654 273.043 463.582 272.787C464.937 272.414 465.641 271.609 465.809 270.252C465.848 269.924 465.945 269.63 466.283 269.476C466.719 269.25 467.104 268.936 467.412 268.553C468.597 267.222 470.169 266.474 471.764 265.862C472.876 265.436 473.44 264.774 473.427 263.669C473.401 261.415 473.917 259.275 474.631 257.167C475.406 254.871 475.93 252.475 477.444 250.489C477.747 250.092 477.77 249.59 477.712 249.079C477.623 248.207 477.162 247.473 476.895 246.668C476.416 245.226 475.751 244.742 474.226 244.729C473.015 244.719 471.806 244.821 470.597 244.67C468.362 244.391 466.195 243.735 463.963 243.443C463.556 243.39 463.446 243.149 463.652 242.814C464.45 241.517 464.644 239.961 465.425 238.659C465.589 238.385 465.535 238.088 465.502 237.786C465.441 237.243 465.275 236.698 465.531 236.155C466.064 235.053 466.211 233.802 465.948 232.605C465.857 232.177 465.896 231.785 466.389 231.532C466.844 231.299 467.012 230.824 466.927 230.326C466.846 229.867 466.875 229.394 467.013 228.948C467.086 228.702 467.1 228.442 467.056 228.189C466.945 227.483 467.076 227.342 467.796 227.493C469.92 227.938 472.03 228.407 474.148 228.861C474.601 228.954 475.035 229.121 475.435 229.354C476.354 229.888 477.274 230.417 478.171 230.994C478.466 231.171 478.809 231.25 479.151 231.219C479.766 231.186 480.388 231.066 480.991 231.127C483.2 231.353 485.403 230.981 487.609 231.116C487.763 231.125 487.999 231.189 488.052 230.983C488.104 230.776 487.874 230.73 487.725 230.655C485.317 229.482 482.911 228.309 480.506 227.134C480.023 226.913 479.496 226.808 478.966 226.827C477.332 226.819 475.682 227.37 474.037 226.827C473.649 226.717 473.255 226.628 472.858 226.558C471.51 226.256 470.162 225.964 468.819 225.649C468.598 225.597 468.211 225.579 468.339 225.208C468.549 224.586 468.229 223.807 468.907 223.323C469.027 223.238 469.007 223.044 468.955 222.898C468.724 222.262 468.878 221.663 469.058 221.036C469.548 219.338 469.971 217.621 470.438 215.916C470.553 215.501 470.602 215.035 471.141 214.866C474.3 213.882 477.436 212.815 480.548 211.665C480.888 211.54 481.257 211.522 481.607 211.615C482.632 211.866 483.707 211.918 484.656 212.453C484.811 212.519 484.978 212.553 485.146 212.553C486.364 212.656 486.374 212.651 486.728 213.764C486.98 214.554 487.545 215.066 488.302 215.176C489.176 215.302 490.047 215.478 490.946 215.504C491.88 215.534 492.209 214.746 492.836 214.377C493 214.276 492.861 214.041 492.779 213.859C492.302 212.796 491.344 212.276 490.411 211.736C490.151 211.585 489.921 211.454 489.799 211.147C490.039 211.044 490.261 210.926 490.452 211.045C491.333 211.606 492.482 211.423 493.325 212.131C493.491 212.273 493.7 212.354 493.918 212.358C494.136 212.363 494.349 212.292 494.521 212.158C496.081 210.909 496.346 209.7 495.601 207.863ZM464.541 251.739C466.133 251.133 467.744 250.612 469.466 250.566C469.959 250.551 470.441 250.707 470.832 251.009C470.996 251.132 471.12 251.265 471.082 251.42C470.894 252.387 470.723 253.286 470.54 254.181C470.494 254.401 470.376 254.628 470.105 254.51C468.652 253.917 467.01 253.912 465.646 253.053C465.252 252.803 464.871 252.533 464.489 252.265C464.201 252.072 464.169 251.88 464.541 251.739Z" fill="#6C6FD7"/>
</g>
<path d="M325.5 328.5C337.1 324.1 432 274 448.5 260L436 328.5L418 355.5L263.5 425.5L0 410.5L1 323L3.5 278C29.1667 291.833 69.5 321.406 91 333.5C107 342.5 153.5 369.5 216.5 358.5C279.5 347.5 311 334 325.5 328.5Z" fill="white"/>
<defs>
<linearGradient id="paint0_linear_127_1452" x1="383.273" y1="92.3022" x2="383.273" y2="145.209" gradientUnits="userSpaceOnUse">
<stop stop-color="#F1F1FB"/>
<stop offset="1" stop-color="#ECECF8"/>
</linearGradient>
<linearGradient id="paint1_linear_127_1452" x1="399.584" y1="145.171" x2="399.584" y2="182.997" gradientUnits="userSpaceOnUse">
<stop stop-color="#F1F1FB"/>
<stop offset="1" stop-color="#ECECF8"/>
</linearGradient>
<linearGradient id="paint2_linear_127_1452" x1="383.084" y1="111.83" x2="383.084" y2="146.85" gradientUnits="userSpaceOnUse">
<stop stop-color="#ECECF8"/>
<stop offset="1" stop-color="#F1F1FB"/>
</linearGradient>
<linearGradient id="paint3_linear_127_1452" x1="285.085" y1="34.807" x2="285.085" y2="76.727" gradientUnits="userSpaceOnUse">
<stop stop-color="#E7E7F6"/>
<stop offset="1" stop-color="#F1F1FB"/>
</linearGradient>
<linearGradient id="paint4_linear_127_1452" x1="186.738" y1="84.2002" x2="186.738" y2="130.346" gradientUnits="userSpaceOnUse">
<stop stop-color="#DCDCF0"/>
<stop offset="1" stop-color="#F1F1FB"/>
</linearGradient>
<clipPath id="clip0_127_1452">
<rect width="480" height="362.085" fill="white" transform="translate(44)"/>
</clipPath>
</defs>
</svg>
