<svg width="24" height="24" viewBox="0 0 24 24" fill="none" xmlns="http://www.w3.org/2000/svg">
<g id="uim:instagram" clip-path="url(#clip0_1247_30)">
<g id="Group 24">
<path id="Vector" d="M11.9989 5.83801C10.7802 5.83801 9.58883 6.19941 8.57549 6.8765C7.56216 7.55359 6.77236 8.51596 6.30597 9.64192C5.83958 10.7679 5.71756 12.0068 5.95532 13.2022C6.19308 14.3975 6.77995 15.4954 7.64173 16.3572C8.5035 17.219 9.60146 17.8059 10.7968 18.0436C11.9921 18.2814 13.2311 18.1593 14.357 17.693C15.483 17.2266 16.4453 16.4368 17.1224 15.4234C17.7995 14.4101 18.1609 13.2187 18.1609 12C18.1609 10.3657 17.5117 8.79842 16.3561 7.64282C15.2005 6.48722 13.6332 5.83801 11.9989 5.83801ZM11.9989 16.0008C11.2076 16.0008 10.4341 15.7662 9.77619 15.3266C9.11826 14.8869 8.60547 14.2621 8.30266 13.5311C7.99985 12.8 7.92062 11.9956 8.07499 11.2195C8.22936 10.4434 8.6104 9.73054 9.16992 9.17102C9.72945 8.6115 10.4423 8.23046 11.2184 8.07609C11.9945 7.92172 12.7989 8.00094 13.53 8.30376C14.261 8.60657 14.8858 9.11936 15.3255 9.77729C15.7651 10.4352 15.9997 11.2087 15.9997 12C15.9999 12.5255 15.8965 13.0458 15.6955 13.5312C15.4945 14.0167 15.1998 14.4578 14.8283 14.8294C14.4567 15.2009 14.0156 15.4956 13.5301 15.6966C13.0447 15.8976 12.5244 16.001 11.9989 16.0008Z" fill="white"/>
<path id="Vector_2" d="M23.9268 7.0524C23.9069 6.05702 23.7182 5.07224 23.3688 4.14C23.0672 3.33928 22.5951 2.61372 21.9852 2.0136C21.3864 1.40328 20.6615 0.931081 19.8612 0.63C18.9286 0.280639 17.9433 0.0923567 16.9476 0.0732001C15.6684 0.0144001 15.2592 0 12 0C8.7408 0 8.3316 0.0131999 7.0524 0.0719999C6.05662 0.0917728 5.07142 0.280454 4.1388 0.63C3.33871 0.931461 2.61391 1.40361 2.0148 2.0136C1.40308 2.6127 0.929995 3.3385 0.6288 4.14C0.279797 5.07232 0.0915243 6.05709 0.0720002 7.0524C0.0120002 8.3316 0 8.7408 0 12C0 15.2592 0.0120002 15.6684 0.0720002 16.9476C0.0915474 17.9429 0.279819 18.9277 0.6288 19.86C0.929714 20.6614 1.40237 21.3871 2.0136 21.9864C2.61335 22.5962 3.33849 23.0683 4.1388 23.37C5.07153 23.719 6.0567 23.9073 7.0524 23.9268C8.3316 23.9856 8.7408 24 11.9988 24C15.2568 24 15.6672 23.9868 16.9464 23.928C17.9418 23.9081 18.9266 23.7194 19.8588 23.37C20.6561 23.0617 21.3802 22.5903 21.9846 21.9858C22.5891 21.3814 23.0605 20.6573 23.3688 19.86C23.7186 18.9279 23.9073 17.943 23.9268 16.9476C23.9844 15.6672 23.9988 15.2592 23.9988 12C23.9988 8.7408 23.9844 8.3316 23.9268 7.0524ZM21.7668 16.8492C21.7579 17.6101 21.6187 18.3638 21.3552 19.0776C21.1556 19.5952 20.8498 20.0653 20.4576 20.4576C20.0653 20.8498 19.5952 21.1556 19.0776 21.3552C18.364 21.6197 17.6102 21.7594 16.8492 21.768C15.5832 21.8256 15.204 21.8376 11.9988 21.8376C8.7936 21.8376 8.4156 21.8256 7.1508 21.768C6.38982 21.7593 5.63601 21.6197 4.9224 21.3552C4.40128 21.1625 3.9298 20.8559 3.5424 20.4576C3.14342 20.0708 2.83663 19.5991 2.6448 19.0776C2.38023 18.364 2.24059 17.6102 2.232 16.8492C2.1744 15.5844 2.1624 15.2052 2.1624 12.0012C2.1624 8.7972 2.1744 8.4168 2.232 7.1508C2.24159 6.3899 2.3812 5.63624 2.6448 4.9224C2.83744 4.40127 3.14411 3.92977 3.5424 3.5424C3.92912 3.14332 4.40081 2.83652 4.9224 2.6448C5.63599 2.38028 6.38981 2.24064 7.1508 2.232C8.4156 2.172 8.796 2.16 11.9988 2.16C15.2016 2.16 15.5832 2.1732 16.8492 2.2308C17.6101 2.24041 18.3638 2.38002 19.0776 2.6436C19.5952 2.84313 20.0653 3.14889 20.4576 3.54117C20.8499 3.93345 21.1557 4.40356 21.3552 4.9212C21.6197 5.63479 21.7594 6.38861 21.768 7.1496C21.8256 8.4156 21.8376 8.7936 21.8376 11.9988C21.8376 15.204 21.8256 15.582 21.768 16.848L21.7668 16.8492Z" fill="white"/>
</g>
</g>
<defs>
<clipPath id="clip0_1247_30">
<rect width="24" height="24" fill="white"/>
</clipPath>
</defs>
</svg>
