<svg width="24" height="24" viewBox="0 0 24 24" fill="none" xmlns="http://www.w3.org/2000/svg">
<g id="messenger (1) 1" clip-path="url(#clip0_1247_38)">
<path id="Vector" d="M5.65576 24.0458C5.31592 24.0458 4.97864 23.9509 4.68256 23.7642C4.17023 23.4406 3.85272 22.886 3.83331 22.2801L3.77417 20.3399C1.34106 18.1582 0 15.095 0 11.7153C0 8.4895 1.23651 5.52301 3.48138 3.36218C5.70282 1.22424 8.72809 0.046875 12 0.046875C15.2719 0.046875 18.2972 1.22424 20.5186 3.36218C22.7635 5.52301 24 8.4895 24 11.7153C24 14.9409 22.7635 17.9073 20.5186 20.0682C18.2972 22.2061 15.2719 23.3837 12 23.3837C10.8204 23.3837 9.66614 23.2311 8.56897 22.9305L6.39093 23.8914C6.15491 23.9949 5.90479 24.0458 5.65576 24.0458ZM12 1.92188C6.22778 1.92188 1.875 6.13202 1.875 11.7153C1.875 14.5591 2.99799 17.1299 5.03705 18.954C5.41315 19.2927 5.62903 19.7516 5.64716 20.2482L5.64734 20.254L5.7052 22.1446L7.82867 21.2076C8.211 21.0394 8.64221 21.007 9.04376 21.1165C9.98749 21.3768 10.9812 21.5085 12 21.5085C17.7722 21.5085 22.125 17.2983 22.125 11.7153C22.125 6.13202 17.7722 1.92188 12 1.92188ZM6.10016 15.5451L9.60388 12.8438C9.84064 12.6661 10.1666 12.6638 10.4055 12.8416L12.9981 14.8568C13.7752 15.4367 14.8874 15.2322 15.4054 14.4146L18.6641 9.24701C18.9789 8.75372 18.3671 8.19617 17.9004 8.54938L14.3983 11.2031C14.1616 11.3809 13.8356 11.3831 13.5967 11.2053L11.0041 9.23712C10.227 8.65723 9.11481 8.86157 8.5968 9.67914L5.33643 14.8473C5.02167 15.3406 5.63342 15.8983 6.10016 15.5451Z" fill="white"/>
</g>
<defs>
<clipPath id="clip0_1247_38">
<rect width="24" height="24" fill="white"/>
</clipPath>
</defs>
</svg>
