<svg width="101" height="234" viewBox="0 0 101 234" fill="none" xmlns="http://www.w3.org/2000/svg">
<path id="Vector" fill-rule="evenodd" clip-rule="evenodd" d="M7.67875 237.072C7.73464 235.947 8.18303 234.878 8.9456 234.051C9.70817 233.224 10.7365 232.691 11.8509 232.547C15.6631 232.202 16.7593 230.104 15.6631 229.054C15.2647 228.575 14.9679 228.02 14.7907 227.423C14.6135 226.825 14.5596 226.197 14.6323 225.578C14.6323 225.349 14.6323 225.07 14.6323 224.726C14.9785 223.111 14.7039 221.424 13.8633 220.003C12.4726 218.265 13.5197 211.986 14.5669 210.592C15.079 210.091 15.6637 209.671 16.3012 209.346C18.5917 208.001 22.1258 205.902 21.864 201.525C21.7658 199.885 21.6022 198.245 21.4222 196.72C20.9805 192.621 20.6042 189.014 21.864 187.243C23.9088 183.659 24.6435 179.473 23.9419 175.405C23.2547 170.863 21.864 159.008 21.864 157.369C21.864 157.156 21.864 156.811 21.864 156.401C21.864 153.368 22.0276 145.826 20.8005 145.514C19.9766 145.418 19.1428 145.566 18.4015 145.939C17.6603 146.312 17.0439 146.893 16.6284 147.613C15.9412 149.007 13.5034 150.4 12.7998 149.695C12.5382 147.418 12.5382 145.118 12.7998 142.841C13.0453 138.529 13.3234 133.594 12.7998 132.626C12.431 131.984 11.8784 131.467 11.2134 131.143C10.5484 130.818 9.80157 130.701 9.06946 130.806C7.67875 130.806 2.80308 127.314 2.80308 122.789C2.80308 121.149 2.95033 119.706 3.06486 118.378C3.43603 116.252 3.34675 114.071 2.80308 111.983C0.868025 106.877 0.0370876 101.416 0.365248 95.9638C0.447054 95.2424 0.528861 94.5209 0.594306 93.7831C1.21604 87.7492 1.87049 81.4037 2.80308 79.2394C3.22012 78.3843 3.71874 77.5716 4.29196 76.8127C5.87345 74.9766 6.81535 72.6743 6.97521 70.2541C7.06555 68.1389 7.40607 66.0419 7.98961 64.007C8.39865 62.3674 8.70951 61.1868 8.36592 60.8589C7.67875 60.1539 4.19379 55.6284 6.28804 52.136C8.51642 48.9679 11.078 46.049 13.9288 43.4294C15.794 41.4618 19.917 37.5759 21.5859 37.8546C23.6637 38.1989 27.8359 38.5597 27.8359 37.8546C27.8359 37.1496 29.5702 35.7723 31.3208 35.0672C32.7115 34.5097 35.8366 33.2144 37.2273 32.6241C37.7148 31.8424 37.9734 30.939 37.9734 30.0171C37.9734 29.0952 37.7148 28.1918 37.2273 27.41C36.4933 26.3268 35.8372 25.1926 35.2639 24.016C34.6095 22.7698 34.135 21.8352 33.7423 21.8352C33.0551 21.8352 32.3516 19.7365 32.7115 18.6871C33.288 15.8174 33.6327 12.9058 33.7423 9.98055C33.7423 7.89819 39.6651 0.929679 43.1337 0.568956C46.6023 0.208232 54.2594 2.32338 54.5866 6.14377C54.7666 8.06216 54.9466 9.63622 55.0774 10.8168C55.2083 11.9973 55.2901 12.768 55.2901 13.1123C55.3133 13.4598 55.3625 13.8051 55.4374 14.1453C55.7225 15.1692 55.7894 16.2418 55.6337 17.2934C55.3708 18.1981 55.2548 19.1392 55.2901 20.0808C54.5808 22.8718 53.5312 25.5647 52.1651 28.0987C51.3558 31.5239 51.0037 35.0416 51.118 38.5597C51.4616 40.642 52.5087 41.6914 52.8523 41.6914C53.1959 41.6914 53.2941 42.0193 53.7031 42.4456C54.4166 43.3141 55.3172 44.0093 56.3373 44.4788C57.728 44.8231 64.6815 46.9219 65.7123 51.7916C66.0759 53.5341 66.6244 55.2326 67.3484 56.8582C67.9197 57.8517 68.1818 58.9936 68.101 60.1375C68.0192 60.6294 67.9211 61.0393 67.8229 61.4164C67.3807 62.8334 67.4798 64.3645 68.101 65.7123C69.1482 68.4997 69.1482 80.6987 69.1482 81.7481C69.1482 82.7974 73.3203 86.9622 73.6639 87.3065C74.0075 87.6508 74.3674 87.3065 74.711 85.2241C74.9237 83.9452 75.1364 81.2398 75.3491 78.5344C75.48 76.8947 75.6109 75.0747 75.7581 73.7302C75.8563 72.7136 76.0199 71.5494 76.1672 70.4509C76.5598 67.6471 76.9361 64.8597 76.4453 64.3678C75.9693 63.6523 75.6604 62.8385 75.5414 61.9869C75.4224 61.1353 75.4965 60.2678 75.7581 59.4488C76.347 58.0177 76.5827 56.4653 76.4453 54.9234V50.7423C76.4111 49.5533 76.1788 48.3784 75.7581 47.2662L80.4047 34.2966L84.9205 47.1842C84.5452 47.2704 84.1943 47.4406 83.8939 47.6819C83.5936 47.9233 83.3516 48.2296 83.1862 48.5779C83.0184 49.6646 83.0184 50.7706 83.1862 51.8572C83.1862 52.4311 83.1862 52.9722 83.1862 53.4149C83.2205 53.9665 83.2971 54.5147 83.4152 55.0546C83.7424 56.891 84.2006 59.4324 83.1862 60.6949C81.7954 62.433 81.4519 63.4824 81.7954 64.171C82.139 64.8597 80.9774 84.6175 80.4047 94.4882C81.3786 95.2611 82.1436 96.2664 82.6295 97.4122C83.1154 98.558 83.3068 99.8077 83.1862 101.047C82.4826 104.884 81.4519 107.327 80.4047 107.327C79.5132 107.452 78.6714 107.814 77.9669 108.376C78.196 113.606 78.5232 124.773 77.9669 127.888C77.8687 128.462 77.7542 129.052 77.6397 129.659C76.916 132.609 76.5588 135.638 76.5762 138.677C77.1014 143.428 77.1014 148.223 76.5762 152.975C75.7552 157.577 75.2903 162.237 75.1855 166.912C75.1632 168.087 75.0593 169.259 74.8746 170.42C74.3653 172.593 74.473 174.865 75.1855 176.979C76.5762 180.111 76.5762 184.997 76.5762 187.079C76.5762 188.047 76.2817 190.9 75.9545 193.949C75.5945 197.475 75.1855 201.262 75.1855 202.771C75.1855 205.542 81.0919 209.739 84.5769 212.166C85.5714 212.831 86.6227 213.407 87.7182 213.888C89.7961 214.839 91.3995 215.527 91.874 218.446C92.076 219.342 92.4744 220.182 93.0403 220.906C93.6063 221.629 94.3256 222.217 95.1463 222.627C96.3406 223.43 97.3878 224.119 97.3878 225.414C97.3602 226.361 97.2005 227.299 96.9133 228.202C96.5697 229.399 96.3243 230.218 97.3878 230.645C99.1221 231.333 100.873 233.071 100.873 234.465V236.908L7.67875 237.072ZM18.8044 71.2215C18.6899 73.3039 18.8044 77.7801 19.8352 78.5344C21.4754 80.0452 22.6792 81.9709 23.3202 84.1092C23.3202 84.5027 22.9766 84.8962 22.5839 85.3553C22.1529 85.696 21.8294 86.1543 21.6523 86.6751C21.4752 87.1958 21.4521 87.7567 21.5859 88.2903C21.8975 89.1545 21.9963 90.0813 21.8738 90.9919C21.7513 91.9026 21.4112 92.7701 20.8823 93.5208C20.2604 94.5201 19.5125 95.4349 18.6572 96.2426C17.0211 97.8822 15.1886 99.9154 14.9759 101.883C14.701 103.679 14.3019 105.454 13.7815 107.195C13.3414 108.527 13.0398 109.901 12.8816 111.295C12.8816 113.033 11.8509 114.082 11.1473 112.688C10.352 110.084 9.88485 107.391 9.75664 104.67C9.75664 104.146 9.95297 102.047 10.1984 99.4235C10.6074 95.0784 11.1473 89.2905 11.1473 86.8966C11.1473 83.0762 13.9288 76.1077 15.6631 74.3532L18.8044 71.2215Z" fill="#6C6FD7"/>
</svg>
