<svg width="169" height="132" viewBox="0 0 169 132" fill="none" xmlns="http://www.w3.org/2000/svg">
<path id="Vector" d="M168.601 25.8627C168.423 25.423 168.274 24.8783 168.384 24.442C168.537 23.835 168.238 23.561 167.849 23.374C167.371 23.1443 166.931 22.8539 166.465 22.6046C165.219 21.9369 163.815 21.5595 162.745 20.5605C162.557 20.3829 162.319 20.2683 162.063 20.2323C161.209 20.1618 160.562 19.6959 159.939 19.189C158.522 18.0504 156.968 17.1301 155.457 16.1458C154.687 15.6454 153.95 15.0893 153.592 14.2083C153.429 13.8179 153.266 13.493 152.911 13.2502C152.663 13.0816 152.457 12.8568 152.311 12.594C151.944 11.9214 151.386 11.7344 150.664 11.7738C149.942 11.8131 149.932 11.7902 150.113 11.0404C150.164 10.79 150.176 10.5334 150.151 10.2792C150.136 10.0184 150.032 9.81168 149.705 9.91339C149.174 10.0774 149.264 9.78051 149.421 9.50326C149.731 8.9586 149.71 8.35488 149.767 7.76921C149.793 7.51001 149.751 7.23604 149.475 7.113C149.148 6.96863 148.993 7.25244 148.873 7.45095C148.311 8.38277 147.496 9.06031 146.669 9.72801C146.429 9.90477 146.219 10.1185 146.046 10.3613C145.491 11.2094 145.452 11.1323 144.489 11.0076C143.711 10.9075 142.907 10.6943 142.115 10.8764C140.875 11.1602 139.644 11.4899 138.494 12.0625C138.03 12.2938 137.513 12.4923 137.023 12.3004C135.976 11.8952 134.971 12.179 133.956 12.3857C133.644 12.4497 133.289 12.5497 133.283 12.9517C133.276 13.3536 133.639 13.3602 133.925 13.4291C134.043 13.4427 134.154 13.4935 134.242 13.5742C134.33 13.6549 134.391 13.7614 134.415 13.8786C134.459 14.1739 134.203 14.2657 133.989 14.356C132.963 14.7858 131.864 14.9055 130.788 15.1483C129.574 15.4256 128.291 15.3764 127.124 15.9128C126.917 16.008 126.709 16.0884 126.738 16.3443C126.773 16.6724 126.575 16.8545 126.412 17.0776C126.287 17.2417 126.131 17.4336 126.263 17.6583C126.395 17.8831 126.654 17.9028 126.886 17.8224C127.263 17.6944 127.492 17.7896 127.608 18.1899C127.684 18.369 127.783 18.5377 127.902 18.6919C127.584 18.8288 127.231 18.8593 126.895 18.7788C126.078 18.5606 125.248 18.4015 124.39 18.5705C124.175 18.6115 123.9 18.6 123.854 18.8231C123.668 19.7714 122.804 19.8796 122.152 20.1749C121.5 20.4702 120.809 20.5112 120.372 21.3036C119.962 22.0451 119.898 22.3027 120.748 22.5767C120.898 22.6259 121.119 22.5914 121.142 22.8228C121.162 23.018 121.001 23.1262 120.866 23.2247C120.398 23.5589 119.899 23.8457 119.375 24.081C118.63 24.4272 118.331 24.2451 118.284 23.4084C118.273 23.1952 118.274 22.9819 118.284 22.7686C118.323 21.4956 118.22 20.2668 117.488 19.1594C117.085 18.5475 117.189 17.911 117.639 17.322C117.921 16.9513 118.157 16.5526 118.173 16.0523C118.217 14.689 119.122 13.977 120.461 14.228C120.668 14.2729 120.879 14.296 121.091 14.2969C121.755 14.2838 122.072 14.0082 122.126 13.3437C122.132 13.1952 122.168 13.0495 122.233 12.9159C122.298 12.7824 122.39 12.6638 122.503 12.5678C122.671 12.4354 122.798 12.2587 122.871 12.0576C123.096 11.4014 123.328 10.7451 123.56 10.0889C123.65 9.85995 123.692 9.61486 123.683 9.369C123.674 9.12313 123.614 8.88177 123.508 8.66002C123.333 8.30402 123.376 7.98576 123.443 7.615C123.546 7.03589 124.041 6.6192 124.039 6.01384C124.039 5.24607 124.078 4.47502 124.016 3.71709C123.93 2.64746 123.144 1.18411 121.827 1.20379C121.613 1.17964 121.413 1.08769 121.255 0.941309C119.813 -0.108633 118.15 0.0800285 116.661 0.500005C115.009 0.962636 113.72 2.16351 112.779 3.65475C112.578 3.98286 112.388 4.10098 112.125 3.71381C111.921 3.41508 111.699 3.1286 111.462 2.85581C111.253 2.59617 110.952 2.42846 110.622 2.38833C110.292 2.3482 109.96 2.43881 109.695 2.6409C109.411 2.86017 109.139 3.09398 108.878 3.34141C107.793 4.32573 107.094 5.65784 105.878 6.52733C105.303 6.9391 104.734 7.11956 104.102 6.85543C103.019 6.39772 102.107 6.72091 101.161 7.30002C99.7817 8.14981 98.78 9.5738 97.0953 9.96425C96.579 10.084 96.1263 10.3842 95.6639 10.6516C94.8926 11.0946 94.1246 11.526 93.1671 11.485C92.6475 11.4637 92.1295 11.6655 91.6311 11.8673C90.1343 12.4726 88.6457 13.0895 87.2927 13.9852C86.2682 14.6627 85.1129 15.1336 84.224 16.0277C82.2733 18.0256 80.6655 20.3338 79.4657 22.8588C78.8611 24.104 78.1453 25.3098 77.0963 26.2318C76.1976 27.0225 75.8364 27.8575 76.1976 28.9862C76.361 29.5079 76.3005 29.6342 75.74 29.5178C72.7301 28.8878 69.717 28.2737 66.7005 27.6754C62.0566 26.7568 57.4404 25.7068 52.8112 24.6913C51.7327 24.4534 50.6477 24.2467 49.5611 24.0482C49.2588 23.9941 48.9074 23.9334 48.744 24.3353C48.4254 25.1408 48.646 25.5428 49.499 25.692C50.8536 25.9266 52.2066 26.1973 53.5448 26.4861C55.272 26.8585 56.9943 27.3063 58.7264 27.6738C59.6562 27.8756 60.5663 28.1479 61.4912 28.3513C63.2249 28.7303 64.988 28.9797 66.7316 29.3275C67.8117 29.544 68.8656 29.8918 69.9474 30.0952C73.8691 30.8335 77.7483 31.7489 81.6455 32.5954C81.8236 32.6348 82.0752 32.6118 82.1079 32.8513C82.1455 33.1187 81.884 33.1794 81.7027 33.2762C80.5801 33.834 79.4477 34.3754 78.3284 34.9365C77.4737 35.3646 76.6388 35.8519 75.7139 36.0848C74.9967 36.2845 74.3217 36.6136 73.722 37.056C73.3135 37.3415 73.0014 37.7385 73.0815 38.293C73.1003 38.3984 73.0809 38.5071 73.0266 38.5992C72.9723 38.6914 72.8868 38.7609 72.7857 38.795C72.5406 38.918 72.2775 39.0083 72.0291 39.1231C71.3886 39.4266 71.3249 39.5857 71.6827 40.1976C72.8576 42.1991 74.3315 43.8987 76.4754 44.9125C76.7058 45.0225 76.9852 45.1028 77.129 45.4359L76.2678 45.5819C74.5521 45.8624 72.8151 46.0265 71.132 46.4825C69.699 46.8697 68.2708 47.2765 67.0469 48.1854C66.7895 48.3782 66.4843 48.4963 66.1646 48.5266C64.8573 48.648 63.7135 49.1057 62.7837 50.0704C62.6709 50.1976 62.5329 50.2999 62.3785 50.3706C61.7249 50.6347 61.5615 51.227 61.6497 51.788C61.7183 52.2506 61.5271 52.3704 61.2314 52.5689C60.3179 53.1825 59.3179 53.6533 58.4895 54.4096C57.8678 54.9774 57.0586 55.2937 56.2181 55.2971C55.1446 55.307 54.8243 55.4398 54.7736 56.5078C54.7132 57.7497 54.12 58.5076 53.1004 59.049C52.9143 59.1519 52.7386 59.2728 52.5759 59.4099C51.6608 60.1564 50.615 60.4451 49.4418 60.4566C47.128 60.4828 44.788 60.5222 42.5347 61.0226C38.613 61.8937 34.9968 63.4735 31.9853 66.2592C29.4672 68.5904 26.5537 68.8939 23.3804 67.8833C22.4343 67.5814 21.5585 66.9219 20.4686 67.1762C20.3627 67.1772 20.2607 67.1366 20.1842 67.063C19.4228 66.4068 18.529 65.8851 18.0861 64.886C17.6363 63.9114 16.8934 63.103 15.9619 62.5745C15.7429 62.4449 15.4945 62.3334 15.238 62.4745C14.9504 62.6287 15.0305 62.9141 15.037 63.1602C15.0572 63.4806 15.1353 63.7947 15.2674 64.0871C15.3524 64.2987 15.5272 64.5251 15.3458 64.7433C15.1645 64.9615 14.9488 64.7679 14.7494 64.7433C14.1889 64.6613 13.9324 64.9074 13.9994 65.4422C14.1089 66.2132 14.0795 66.2198 13.3082 66.3527C12.8741 66.4411 12.4228 66.3713 12.0353 66.1558C11.1709 65.7014 10.3538 65.2388 9.53683 64.7171C9.21002 64.5071 8.86033 64.138 8.44529 64.4267C8.05802 64.6941 8.36032 65.0829 8.41097 65.4274C8.4796 65.872 8.15116 66.1804 7.77533 65.9721C7.09066 65.5915 6.30469 65.3634 5.75402 64.7745C5.33244 64.3266 4.8651 64.0723 4.23763 64.1494C3.96311 64.1839 3.74742 64.028 3.5595 63.8525C3.37159 63.677 3.08399 63.3603 2.79804 63.6392C2.51208 63.9181 2.80621 64.2019 2.97125 64.4218C3.25146 64.7968 3.55954 65.1499 3.89284 65.4783C4.01803 65.5976 4.09594 65.7583 4.11216 65.9309C4.12838 66.1034 4.08182 66.2759 3.98108 66.4167C3.78336 66.7448 3.54479 66.4019 3.3389 66.3199C2.98759 66.1788 2.60849 66.0754 2.30619 66.3199C1.90585 66.648 1.54146 66.5971 1.12805 66.4035C0.952479 66.3263 0.768064 66.2712 0.579008 66.2395C0.486589 66.2101 0.387389 66.2101 0.294967 66.2395C0.202544 66.2688 0.121409 66.3261 0.0626504 66.4035C-0.0729752 66.6004 0.0365055 66.7792 0.155791 66.9285C0.569204 67.4404 0.959739 67.9784 1.49897 68.3722C2.88464 69.386 4.27684 70.3884 5.65761 71.4104C7.91586 73.0838 10.2117 74.6751 12.8899 75.6332C13.9188 75.9709 14.9664 76.2487 16.0272 76.4649C18.6107 77.0621 21.199 77.6904 23.8821 77.5099C25.6174 77.3918 27.3528 77.2065 29.0228 76.6897C31.5392 75.9203 34.0278 75.0623 36.5639 74.347C38.7427 73.7476 40.7692 72.6889 42.5085 71.2415C44.0037 69.9897 45.6132 68.9267 47.4776 68.3197C48.3061 68.0523 49.1035 67.7045 49.9042 67.3616C50.8776 66.9332 51.896 66.6168 52.9403 66.4183C53.4631 66.3248 53.5612 66.497 53.3863 66.958C53.3161 67.1585 53.2614 67.3642 53.2229 67.5732C52.9876 68.6954 53.2523 69.0333 54.3749 69.0497C54.5874 69.0497 54.7998 69.0563 55.0122 69.0694C55.5302 69.0907 55.7884 69.3663 55.7688 69.8897C55.7573 70.1653 55.6969 70.4376 55.6822 70.7099C55.6642 71.0676 55.5678 71.4695 55.875 71.7385C56.2165 72.0355 56.3472 72.4309 56.5286 72.8164C57.1299 74.1288 57.527 75.5676 58.5368 76.6454C59.7885 77.9939 61.3539 78.9782 62.8752 79.9625C63.9749 80.6778 65.274 81.0404 66.5976 81.1962C67.63 81.3251 68.6553 81.5064 69.6696 81.7393C71.2402 82.0805 72.8331 82.3091 74.4361 82.4233C74.3054 82.7416 74.0831 82.8039 73.923 82.9335C72.9524 83.7243 71.8837 84.4379 71.833 85.8865C71.8216 86.2048 71.5618 86.3951 71.32 86.5837C70.2448 87.4171 69.0682 88.098 67.9489 88.8641C66.7789 89.6663 65.3181 90.0568 64.4063 91.2019C63.8736 91.8728 63.1726 92.1862 62.4765 92.5766C61.4642 93.1186 60.4853 93.7213 59.545 94.3812C58.9061 94.8471 58.1675 95.1391 57.563 95.6493C56.9584 96.1595 56.9289 96.5861 57.4339 97.18C57.9715 97.8099 58.6855 98.1823 59.4307 98.5039C59.581 98.5678 59.8032 98.5744 59.8212 98.7778C59.8392 98.9813 59.63 99.0403 59.4944 99.142C58.3636 100.01 57.027 100.582 55.9763 101.557C54.5629 102.869 52.6412 103.516 51.4288 105.087C51.3294 105.199 51.2074 105.289 51.0709 105.35C50.0153 105.89 48.9581 106.431 47.896 106.958C46.3763 107.712 44.806 108.378 43.386 109.31C42.1621 110.116 40.8598 110.787 39.8189 111.904C38.8287 112.973 38.7028 112.857 39.479 114.082C39.9202 114.78 39.8843 114.917 39.1751 115.311C37.9871 115.967 36.8025 116.638 35.6112 117.29C35.3547 117.431 35.1406 117.601 35.0736 117.885C35.0204 118.093 34.9214 118.286 34.784 118.45C34.6465 118.614 34.4741 118.745 34.2795 118.833C33.3759 119.306 32.8726 119.916 33.2174 121.037C33.4184 121.693 31.7615 131.132 32.4658 131.116C37.3499 131.005 44.239 122.328 49.1215 121.919C50.3585 121.816 51.6085 121.88 52.852 121.872C53.3765 121.872 53.906 122.003 54.406 121.983C54.9665 121.96 55.5416 121.852 56.1005 121.901C58.1316 122.08 60.1725 122.05 62.2036 122.085C68.3199 122.185 74.4377 122.146 80.5556 122.151C87.5444 122.151 94.5315 122.151 101.52 122.165C102.158 122.165 102.491 121.952 102.664 121.335C102.837 120.718 103.197 120.225 103.466 119.67C103.984 118.607 104.885 117.808 105.408 116.753C105.898 115.777 106.519 114.888 107.132 113.995C107.744 113.103 107.785 111.638 107.132 110.726C106.478 109.814 105.865 108.911 105.171 108.052C104.383 107.067 103.898 105.816 102.659 105.24C101.586 104.748 100.881 103.576 99.5415 103.542C99.1722 103.532 99.1902 103.183 99.2474 102.886C99.4222 102.021 100.073 101.521 100.692 101.002C102.043 99.8704 103.406 98.7516 104.762 97.6229C105.061 97.3735 105.375 97.093 105.264 96.6599C105.131 96.0971 105.137 95.51 105.284 94.9505C105.543 93.8612 105.401 92.6849 106.14 91.6842C106.462 91.2175 106.869 90.8157 107.339 90.4997C108.045 90.0453 108.086 89.7483 107.534 89.1381C107.137 88.6908 106.66 88.3224 106.128 88.052C105.502 87.7387 104.883 87.4122 104.264 87.0874C103.965 86.9233 103.947 86.7757 104.264 86.6133C104.833 86.3278 105.39 86.021 105.962 85.7421C106.797 85.3369 107.122 84.6528 106.712 83.8326C106.434 83.2748 106.676 83.0927 107.107 82.9549C107.733 82.7564 108.372 82.5956 109.004 82.4102C110.432 81.987 111.248 80.3235 110.704 78.9487C110.642 78.7945 110.506 78.6436 110.596 78.4697C111.076 77.5395 110.936 76.4436 111.441 75.4986C111.692 75.0278 111.914 74.7456 112.436 74.6784C113.639 74.5218 114.807 74.1601 115.888 73.6088C116.094 73.5054 116.379 73.3938 116.451 73.2134C116.737 72.5391 117.354 72.4227 117.931 72.2438C118.438 72.0798 118.99 72.047 119.465 71.8321C120.609 71.3104 121.691 71.5466 122.781 71.9961C125.224 72.9804 127.675 73.9648 130.297 74.347C132.11 74.6046 133.883 75.0229 135.655 75.4576C136.399 75.6461 137.095 75.9893 137.698 76.4649C137.887 76.6007 138.041 76.7806 138.146 76.9893C138.251 77.1979 138.303 77.4289 138.299 77.6625C138.335 78.9044 137.776 79.9757 137.397 81.1076C137.386 81.1602 137.362 81.2094 137.329 81.2516C137.296 81.2937 137.253 81.3278 137.205 81.3512C137.157 81.3745 137.104 81.3866 137.05 81.3865C136.997 81.3864 136.944 81.374 136.896 81.3504C135.883 81.0223 135.85 81.0486 135.425 82.0067C134.771 83.447 134.365 84.9727 133.827 86.4525C133.642 86.9627 133.337 87.5238 133.7 88.1111C133.799 88.2751 133.662 88.3851 133.536 88.4769C133.414 88.5612 133.275 88.6174 133.128 88.6415C132.982 88.6656 132.832 88.657 132.69 88.6164C132.11 88.5032 131.507 88.3408 130.966 88.7312C130.769 88.8806 130.536 88.9733 130.291 88.9994C130.046 89.0254 129.798 88.9837 129.575 88.8788C128.964 88.6147 128.725 88.8936 128.549 89.4219C128.071 90.8346 127.704 92.2827 127.451 93.7529C127.322 94.3802 127.267 95.0206 127.288 95.6608C127.32 96.1251 127.521 96.2629 127.959 96.1005C128.938 95.7471 129.894 95.3334 130.822 94.8619C131.291 94.6158 131.779 94.2565 132.271 94.2319C133.427 94.1778 133.905 93.4116 134.407 92.5717C134.909 91.7317 135.654 91.0427 136.582 90.7868C137.937 90.4144 138.641 89.6089 138.809 88.2522C138.848 87.9241 138.945 87.6304 139.283 87.4762C139.719 87.2502 140.104 86.9357 140.412 86.5526C141.597 85.2221 143.169 84.474 144.764 83.8621C145.876 83.4356 146.44 82.7744 146.427 81.6687C146.401 79.4146 146.917 77.2754 147.631 75.1673C148.406 72.8705 148.93 70.4753 150.444 68.4886C150.747 68.0916 150.77 67.5896 150.712 67.0794C150.623 66.2067 150.162 65.4734 149.895 64.6679C149.416 63.2258 148.751 62.7419 147.226 62.7287C146.015 62.7189 144.806 62.8206 143.597 62.6697C141.362 62.3908 139.195 61.7346 136.963 61.4426C136.556 61.3901 136.446 61.1489 136.652 60.8142C137.45 59.5166 137.644 57.9613 138.425 56.6588C138.589 56.3848 138.535 56.0879 138.502 55.786C138.441 55.243 138.275 54.6983 138.531 54.1553C139.064 53.0526 139.211 51.8019 138.948 50.6052C138.857 50.177 138.896 49.7849 139.389 49.5323C139.844 49.2993 140.012 48.8236 139.927 48.3265C139.846 47.8668 139.875 47.3942 140.013 46.9484C140.086 46.7019 140.1 46.442 140.056 46.1889C139.945 45.4834 140.076 45.3424 140.796 45.4933C142.92 45.9379 145.03 46.4071 147.148 46.8615C147.601 46.9544 148.035 47.1206 148.435 47.3537C149.354 47.8885 150.274 48.4167 151.171 48.9942C151.466 49.1715 151.809 49.2502 152.151 49.2189C152.766 49.1861 153.388 49.0664 153.991 49.1271C156.2 49.3535 158.403 48.9811 160.609 49.1156C160.763 49.1254 160.999 49.1894 161.052 48.9827C161.104 48.776 160.874 48.7301 160.725 48.6546C158.317 47.4822 155.911 46.3086 153.506 45.134C153.023 44.9133 152.496 44.8083 151.966 44.8272C150.332 44.819 148.682 45.3702 147.037 44.8272C146.649 44.7175 146.255 44.6277 145.858 44.5582C144.51 44.2563 143.162 43.9643 141.819 43.6493C141.598 43.5968 141.211 43.5788 141.339 43.208C141.549 42.5863 141.229 41.807 141.907 41.3231C142.027 41.2377 142.007 41.0442 141.955 40.8982C141.724 40.2616 141.878 39.6628 142.058 39.0361C142.548 37.3382 142.971 35.6206 143.438 33.916C143.553 33.501 143.602 33.0351 144.141 32.8661C147.3 31.8818 150.436 30.8149 153.548 29.6654C153.888 29.5396 154.257 29.5219 154.607 29.6146C155.632 29.8656 156.707 29.9181 157.656 30.4529C157.811 30.5193 157.978 30.5534 158.146 30.5529C159.364 30.6563 159.374 30.6514 159.728 31.7637C159.98 32.5544 160.545 33.0662 161.302 33.1762C162.176 33.3025 163.047 33.478 163.946 33.5043C164.88 33.5338 165.209 32.7463 165.836 32.3772C166 32.2755 165.861 32.0409 165.779 31.8588C165.302 30.7957 164.344 30.2757 163.411 29.736C163.151 29.585 162.921 29.4538 162.799 29.147C163.039 29.0437 163.261 28.9255 163.452 29.0453C164.333 29.6064 165.482 29.4226 166.325 30.1313C166.491 30.2734 166.7 30.3536 166.918 30.3584C167.136 30.3631 167.349 30.2922 167.521 30.1576C169.081 28.9091 169.346 27.7001 168.601 25.8627ZM137.541 69.7387C139.133 69.1334 140.744 68.6117 142.466 68.5658C142.959 68.5507 143.441 68.7072 143.832 69.0087C143.996 69.1317 144.12 69.2646 144.082 69.4205C143.894 70.3867 143.723 71.2858 143.54 72.1815C143.494 72.4013 143.376 72.6277 143.105 72.5096C141.652 71.9174 140.01 71.9124 138.646 71.0528C138.252 70.8034 137.871 70.5328 137.489 70.2654C137.201 70.0718 137.169 69.8798 137.541 69.7387Z" fill="#6C6FD7"/>
</svg>
