<svg width="66" height="294" viewBox="0 0 66 294" fill="none" xmlns="http://www.w3.org/2000/svg">
<path d="M2.66054 193.279L1.76897 297.072H61.4895L59.4374 250.088L58.0223 191.457L56.2391 188.467V181.348C56.2391 179.554 55.0645 158.568 55.0645 157.144C54.8674 154.982 55.2742 152.807 56.2391 150.865C56.6961 149.803 56.8053 148.622 56.5509 147.493C56.2965 146.364 55.6916 145.346 54.8239 144.586C54.6697 144.417 54.5539 144.217 54.4845 143.998C54.4151 143.78 54.3938 143.549 54.422 143.321C54.4503 143.094 54.5275 142.875 54.6482 142.68C54.7689 142.486 54.9303 142.32 55.1212 142.194C55.572 141.723 55.9117 141.156 56.115 140.535C56.3184 139.914 56.3801 139.255 56.2957 138.606C56.213 138.073 56.2501 137.527 56.4044 137.01C56.5586 136.492 56.8262 136.016 57.1873 135.617C58.0789 134.421 57.4845 133.21 56.2957 132.313C55.107 131.416 56.0127 129.025 56.2957 128.128C56.5788 127.231 57.7817 127.829 58.6732 127.53C59.5648 127.231 62.2112 121.251 61.0366 119.756C60.0562 118.589 59.2592 117.278 58.6732 115.869C58.376 114.972 59.8478 111.085 60.0884 109.889C60.329 108.693 61.2772 106.899 63.9377 103.895C66.5982 100.891 64.2349 100.008 63.9377 99.7091C63.6405 99.4101 61.8574 100.905 62.1546 99.1111C62.2168 97.1459 61.8142 95.194 60.98 93.416C60.6828 93.117 60.0884 93.117 60.3856 92.22C60.5692 90.354 60.2413 88.473 59.4374 86.7812C58.56 84.3893 53.239 85.5853 51.753 85.5853C50.2671 85.5853 46.0923 90.3691 45.8517 91.2803C45.6111 92.1916 44.9602 91.7787 44.663 91.5793C43.9661 90.2299 43.1764 88.9312 42.2997 87.6925C41.3525 86.8703 40.2433 86.259 39.0447 85.8985C38.6709 85.8752 38.3099 85.7521 37.999 85.5419C37.6881 85.3317 37.4384 85.042 37.2758 84.7025C35.3417 83.112 33.2614 81.7103 31.0632 80.5166L31.3603 75.4338H33.1293C34.0775 75.4338 34.1199 73.6256 34.0209 72.7286C33.7237 72.4296 33.1859 71.8316 33.4265 71.8316C33.6671 71.8316 33.4265 69.1407 33.4265 67.6458C33.4265 66.1508 29.8885 62.5629 28.997 61.6659C28.1054 60.7689 26.3364 61.3669 25.1477 61.3669C23.9589 61.3669 20.7182 65.2538 19.8266 66.1508C18.9351 67.0478 19.3455 69.2404 19.5436 70.3367C19.6135 70.5804 19.6229 70.8376 19.5711 71.0858C19.5193 71.334 19.4078 71.5656 19.2464 71.7605C18.652 72.3584 18.9492 73.5544 18.9492 74.1524C18.9492 74.7504 19.9257 74.3517 20.3644 74.1524C20.5034 74.5448 20.603 74.9502 20.6616 75.3626C20.7111 76.1085 20.501 76.8485 20.0672 77.4555C19.8616 77.606 19.6139 77.6871 19.3596 77.6871C19.1054 77.6871 18.8576 77.606 18.652 77.4555L14.8027 72.6574C14.0244 72.3584 12.496 71.5326 12.7366 70.5645C13.0338 69.3685 11.8592 59.5018 11.562 58.3058C11.2648 57.1099 11.2648 58.0068 11.2648 53.8209C11.1227 50.1055 10.7255 46.4043 10.0761 42.744V36.2231C10.6704 36.4225 11.8592 36.5791 11.8592 35.6251C11.8592 34.4292 14.5056 30.8413 14.8027 30.8413C15.0999 30.8413 16.2887 27.8514 14.8027 27.5524C14.3998 27.4588 14.0403 27.2304 13.7832 26.9045C13.5261 26.5786 13.3866 26.1745 13.3876 25.7584L15.4538 10.7946H14.1518V9.37082C15.2254 9.54163 16.319 9.54163 17.3925 9.37082C17.6914 9.23005 17.954 9.02201 18.1602 8.76278C18.3663 8.50355 18.5104 8.20008 18.5813 7.87586V0.927856H6.17015C6.46261 3.2538 6.93578 5.55311 7.58533 7.80467C7.83906 8.40249 8.2501 8.91935 8.77411 9.29963H11.7318V10.7234H11.1374C10.9393 14.9947 10.5431 23.7651 10.5431 24.4913C10.5431 25.2174 8.77408 25.6872 7.58533 26.2852C6.39658 26.8832 5.66071 29.4033 5.66071 33.2332C5.47788 37.0837 4.87999 40.9028 3.87757 44.6234C3.41918 48.5972 3.22534 52.5974 3.29734 56.5973V62.8761C3.52103 67.8021 4.11235 72.7042 5.06631 77.541C5.84903 80.3739 6.34687 83.2787 6.55228 86.2117C6.54145 88.4819 7.02447 90.727 7.96745 92.7895C8.91562 94.9394 8.95808 99.6664 8.85902 101.759L6.77871 108.351L5.00974 106.557L3.821 110.743L5.60409 111.64C5.80221 112.039 6.0711 112.95 5.60409 113.434C5.13708 113.918 3.82099 119.015 3.24077 121.507L0 125.664L6.79283 129.85L7.98162 129.252C8.57599 132.1 9.93453 138.165 10.6421 139.133C11.5337 140.329 10.9393 147.206 9.75059 151.392C8.56184 155.578 13.0055 171.738 13.897 173.233C14.6902 174.8 14.996 176.571 14.7745 178.315C14.548 178.8 8.17971 181.704 5.02386 183.099V188.794L2.66054 193.279Z" fill="#6C6FD7"/>
</svg>
