<svg width="104" height="203" viewBox="0 0 104 203" fill="none" xmlns="http://www.w3.org/2000/svg">
<path id="Vector" d="M103.975 12.4544C103.817 15.0123 103.658 19.1689 103.024 20.9274C102.549 22.5261 100.489 25.5636 99.6962 25.8833C98.9038 26.2031 97.1606 28.4412 97.0021 29.2406C96.8437 30.0399 89.3953 40.2715 89.2368 40.2715C89.0784 40.2715 86.0674 43.7886 85.4335 44.4281C84.6411 45.2274 81.7886 46.8261 80.9962 47.3057C80.2038 47.7853 78.6191 49.7037 77.6682 50.3432C76.7174 51.1426 72.4386 56.2583 70.6953 57.5373C69.4275 58.4965 68.1597 59.2958 67.8428 59.6156C68.1597 62.6531 68.7936 69.2077 68.3182 71.4458C67.8428 74.3235 67.0504 76.7215 67.0504 77.0412C67.0504 77.361 66.258 85.5143 66.575 87.1129C66.7335 88.7116 66.575 94.307 66.258 94.9465C65.9411 95.586 66.0995 97.8241 66.258 98.7833C66.4165 103.899 66.575 114.45 66.258 115.41C65.9411 116.209 65.9411 119.087 65.9411 120.366V130.917C65.9411 131.876 65.6242 132.516 65.9411 134.594C66.258 136.193 66.0996 140.829 65.9411 143.067C66.0996 145.945 66.575 151.86 66.892 153.139C67.2089 154.737 67.0504 167.846 67.3674 170.404C67.6843 172.483 68.1597 177.758 68.3182 180.156C66.0996 180.156 61.5038 180.156 61.1869 180.956C60.8699 181.915 61.5038 183.993 61.1869 184.792C60.8699 185.592 58.3343 189.908 55.9572 191.187C54.0555 192.146 52.9462 192.786 52.6292 192.946C52.4708 193.266 52.3123 194.225 53.1046 194.704C54.214 195.504 54.214 195.983 55.7987 195.983C57.3835 195.983 59.6021 196.303 60.7114 197.582C61.8207 198.861 61.8207 199.66 63.0885 200.14C64.3563 200.619 67.5258 201.579 67.8428 201.898C68.4767 202.218 68.9521 202.378 69.2691 202.378H13.3275L20.1419 200.779C20.4589 196.303 20.7758 187.031 20.4589 186.071C20.1419 184.793 19.6665 184.633 19.508 183.514C19.3495 182.395 20.3004 180.796 19.825 180.636C19.508 180.476 19.0326 178.238 19.508 177.598C19.8249 176.799 20.3004 171.044 19.825 170.244C19.508 169.445 19.3495 163.69 19.0326 162.411C18.8741 161.132 18.7156 159.373 18.7156 158.414C18.7156 157.455 19.0326 151.7 18.7156 151.06C18.3987 150.581 18.7156 148.502 19.0326 148.183C19.3495 147.863 19.0326 146.904 19.0326 146.584C19.0326 146.264 21.4097 144.825 21.2512 144.346C21.0928 144.026 21.4097 143.227 20.9343 143.227C20.4589 143.227 19.3495 139.23 19.6665 137.951C19.9834 136.672 21.2512 135.073 21.2512 134.114C21.2512 133.155 20.7758 130.277 20.1419 129.478C19.6665 128.679 18.8741 128.039 19.1911 127.4C19.508 126.92 20.1419 126.281 20.1419 124.842C20.1419 123.403 19.9834 120.845 19.825 120.206C19.6665 119.726 19.508 117.488 19.825 115.889C20.1419 114.291 19.9834 112.212 19.825 111.893C19.6665 111.573 18.8741 108.855 18.8741 107.896C18.8741 106.937 17.9233 103.739 18.8741 102.3C19.825 100.862 21.0928 99.4228 21.2512 97.984C21.4097 96.5452 22.6775 92.7083 22.9945 91.7491C23.3114 90.7899 23.3114 90.3103 23.3114 89.6708V85.6741C23.3114 84.2353 23.6284 84.7149 22.9945 83.5958C22.2021 82.4768 21.4097 81.1978 21.8851 80.2386C22.3605 79.2794 22.3606 79.1195 22.3606 78.48C22.3606 77.6807 22.836 77.0412 22.3606 76.082C21.8851 75.2827 21.4097 75.2827 21.2512 75.2827C20.1419 78.6399 17.7648 85.3544 17.6063 85.834C17.4479 86.6333 17.2894 93.3478 16.497 94.7866C15.7046 96.2254 14.2783 100.382 14.1199 100.702C13.9614 100.862 13.486 101.661 13.169 102.141L13.0106 102.94C14.1199 103.26 16.1801 104.059 15.3877 105.338C14.5953 106.617 13.8029 107.096 13.6445 107.096C13.486 107.416 13.169 108.216 13.6445 108.375C14.1199 108.535 15.2292 110.614 15.0707 112.692C14.9122 114.93 14.5953 118.767 14.5953 120.685C14.5953 122.764 14.5953 128.519 14.4368 129.158C14.2784 129.638 13.9614 130.277 13.9614 130.597C13.9614 130.917 14.2783 132.196 13.9614 132.835C13.6444 133.315 12.2182 133.954 11.5843 133.315C11.1088 132.835 10.9504 132.036 10.7919 131.716C10.7919 131.077 10.6334 129.638 10.475 129.478C10.3165 129.318 9.68256 128.039 9.99951 126.121C10.158 124.682 9.99951 123.563 9.99951 123.243C9.68256 122.604 8.8902 121.485 8.57325 121.485C8.2563 121.485 6.19615 123.243 5.72073 123.243C5.2453 123.243 4.6114 123.243 4.13598 122.284C3.66056 121.485 2.39276 120.046 1.75886 119.406C1.28344 119.087 0.491043 118.447 0.649518 117.328C0.807992 116.049 2.70969 113.171 3.02664 112.052C3.34359 110.933 4.13598 110.294 4.13598 109.495C4.13598 108.695 4.61138 93.1879 4.61138 92.3886C4.61138 91.5893 4.76989 88.8715 5.08684 87.5926C5.40379 86.3136 5.8792 85.3544 6.5131 83.9156C7.30547 82.4768 9.20717 79.1195 9.68259 77.361C9.99954 75.6024 10.9504 72.0853 11.4258 70.9662C11.9012 69.8471 11.9012 66.0103 12.5351 64.7314C13.0105 63.4524 13.8029 57.2175 16.9724 55.6189C20.1419 54.0202 24.2623 53.2208 24.5792 53.2208C24.8962 53.2208 31.869 49.2241 32.186 47.9452C32.5029 46.986 32.3444 45.707 32.186 45.2274C30.6012 44.5879 27.5902 43.1491 27.5902 42.6695C27.5902 42.1899 28.5411 41.0708 28.6996 40.1116C28.858 39.1524 29.0165 38.9925 28.6996 37.8735C28.3826 36.7544 27.7487 30.5195 29.8088 27.482C31.3936 24.9241 34.4046 23.0057 35.8309 22.3662C37.2572 22.0465 40.2682 21.7268 40.9021 22.0465C41.8529 22.3662 45.8148 26.0432 46.1318 26.8425C46.4487 27.6419 47.875 29.2406 48.1919 32.1182C48.3504 34.9958 48.1919 39.632 48.6674 40.7511C49.1428 41.5504 49.6182 44.1083 49.9352 45.3873C49.9352 45.707 49.9352 46.3465 49.4597 46.3465H46.1318C46.1318 46.6662 46.1317 47.3057 46.4487 47.3057C46.9241 47.3057 48.1919 47.6254 48.8258 47.4656C49.3012 47.3057 52.9462 46.0268 53.2631 46.0268C53.5801 46.0268 55.3233 45.2274 55.6402 44.9077C55.9572 44.5879 60.553 44.1083 61.3453 44.5879C61.9792 44.9077 62.2962 45.8669 62.4546 46.3465C65.1487 44.5879 70.5368 41.0708 71.0123 40.911C71.4877 40.7511 72.4385 39.9518 72.597 39.3123C72.7555 38.5129 75.1326 34.9958 78.4606 33.7169C81.1547 32.7577 83.8487 30.1998 84.7996 28.9208C86.8597 27.1623 90.9801 23.8051 91.297 23.4853C91.7725 23.1656 91.7725 21.8866 91.297 21.2472C90.8216 20.7675 89.8708 18.2097 89.8708 17.0906C89.8708 15.9715 89.8708 12.7741 89.5538 11.4952C89.2369 10.2162 89.2369 9.25703 89.8708 9.25703C90.6632 9.25703 92.5648 10.0564 93.0403 12.1347C93.1988 13.4136 93.3572 13.7333 93.1987 13.8932C93.3572 14.0531 93.6742 14.213 93.8326 12.934C93.9911 11.3353 94.3081 8.13795 94.3081 7.01887C94.3081 5.89979 94.4666 3.66163 94.625 3.02216C94.7835 2.22282 94.7835 1.74322 95.7343 1.90308C96.5267 2.06295 96.6852 2.38269 96.6852 2.38269C96.6852 1.58335 96.8437 0.144532 97.7945 0.3044C98.9038 0.624137 99.3793 1.42348 99.3793 1.90308C99.3793 2.38269 99.3792 2.70243 99.6962 2.38269C100.013 2.22283 100.489 1.10374 100.964 2.06295C101.439 3.02216 102.073 4.3011 101.915 5.42018C101.756 6.21953 101.915 7.17874 101.915 7.49848C102.232 7.17874 102.866 6.85901 103.183 7.17875C103.5 7.49848 104.133 9.8965 103.975 12.4544Z" fill="#6C6FD7"/>
</svg>
