<svg width="137" height="52" viewBox="0 0 137 52" fill="none" xmlns="http://www.w3.org/2000/svg">
<g id="Group" opacity="0.49">
<path id="Vector" d="M136.15 51.3275C134.054 49.572 130.398 48.4062 126.23 48.4062C125.599 48.4062 124.982 48.438 124.374 48.4924C124.374 48.4607 124.374 48.4335 124.374 48.4062C124.376 46.5706 123.867 44.7706 122.906 43.2065C121.945 41.6425 120.569 40.3758 118.931 39.5473C118.1 39.1198 117.405 38.4686 116.924 37.6671C116.443 36.8657 116.196 35.9458 116.209 35.0112V34.9976C116.209 30.9687 114.609 27.1047 111.76 24.2558C108.911 21.4069 105.047 19.8064 101.018 19.8064C100.751 19.8064 100.492 19.8064 100.229 19.8426C100.229 19.702 100.229 19.5569 100.229 19.4163C100.214 14.7551 98.5283 10.2537 95.4775 6.72958C92.4268 3.20543 88.2133 0.892177 83.6023 0.209859C78.9913 -0.472459 74.2885 0.521404 70.3479 3.01098C66.4072 5.50056 63.49 9.32077 62.1259 13.7779C61.7831 14.9273 61.0327 15.912 60.0156 16.5476C58.9984 17.1831 57.7843 17.4257 56.601 17.2299C54.6255 16.9189 52.6061 17.0401 50.682 17.5853C48.758 18.1304 46.9751 19.0864 45.4563 20.3874C43.9375 21.6884 42.7191 23.3034 41.885 25.121C41.0509 26.9385 40.621 28.9154 40.625 30.9152C40.625 31.2599 40.6522 31.6001 40.6794 31.9403C40.3392 31.9131 39.999 31.8904 39.6543 31.8904C36.5031 31.8904 33.4809 33.1419 31.2523 35.3697C29.0236 37.5975 27.771 40.6192 27.7698 43.7704C27.7698 43.911 27.7698 44.0471 27.7925 44.1877C26.2609 43.0833 24.3639 42.6088 22.4928 42.862C20.6216 43.1152 18.919 44.0768 17.736 45.5485C17.2418 46.1861 16.6023 46.6963 15.8708 47.0364C15.1393 47.3765 14.3371 47.5367 13.5311 47.5036C13.0775 47.5036 12.6239 47.4718 12.1703 47.4718C6.72698 47.4718 2.02309 49.0776 0 51.3683L136.15 51.3275Z" fill="white"/>
<path id="Vector_2" d="M134.907 50.4928C132.753 49.2273 129.677 48.4244 126.23 48.4244C125.599 48.4244 124.982 48.4562 124.374 48.5106C124.374 48.4788 124.374 48.4516 124.374 48.4244C124.376 46.5887 123.867 44.7887 122.906 43.2247C121.945 41.6606 120.569 40.3939 118.931 39.5655C118.1 39.138 117.405 38.4867 116.924 37.6853C116.443 36.8838 116.196 35.964 116.209 35.0294V34.9976C116.211 31.3639 114.905 27.8509 112.531 25.0999C112.381 25.0999 112.24 25.0999 112.077 25.0999C111.81 25.0999 111.546 25.1272 111.283 25.1408C111.283 25.0001 111.283 24.855 111.283 24.7144C111.283 24.415 111.252 24.1247 111.238 23.8298C108.444 21.2566 104.785 19.8284 100.986 19.829C100.719 19.829 100.46 19.829 100.193 19.8653C100.193 19.7247 100.193 19.5796 100.193 19.4389C100.207 16.8127 99.6876 14.2109 98.6662 11.7913C97.6447 9.37183 96.1424 7.18501 94.2504 5.36353C93.4548 5.25841 92.6534 5.20386 91.8508 5.20023C87.6695 5.20038 83.5991 6.54612 80.2417 9.03845C76.8843 11.5308 74.418 15.0374 73.2076 19.0398C72.8678 20.188 72.1213 21.1732 71.1078 21.8111C70.0943 22.4489 68.8831 22.6957 67.7008 22.5053C65.7272 22.1946 63.7098 22.3153 61.7873 22.8592C59.8649 23.403 58.0831 24.357 56.5647 25.6555C55.0463 26.954 53.8274 28.5662 52.9919 30.381C52.1564 32.1957 51.7241 34.17 51.7248 36.1679C51.7248 36.5127 51.752 36.8529 51.7792 37.1931C51.439 37.1659 51.0988 37.1432 50.7541 37.1432C49.1936 37.1426 47.6483 37.4495 46.2064 38.0462C44.7646 38.643 43.4544 39.5179 42.3508 40.6212C41.2471 41.7244 40.3716 43.0342 39.7743 44.4758C39.177 45.9175 38.8696 47.4627 38.8696 49.0232C38.8696 49.1638 38.8696 49.2999 38.8923 49.4405C37.3607 48.3361 35.4637 47.8616 33.5926 48.1148C31.7214 48.368 30.0188 49.3296 28.8358 50.8013C28.6768 50.9935 28.5056 51.1754 28.3232 51.3456H135.152C135.075 51.0553 135.002 50.7741 134.907 50.4928Z" fill="url(#paint0_linear_127_1465)"/>
</g>
<defs>
<linearGradient id="paint0_linear_127_1465" x1="81.7377" y1="5.20023" x2="81.7377" y2="51.3456" gradientUnits="userSpaceOnUse">
<stop stop-color="#DCDCF0"/>
<stop offset="1" stop-color="#F1F1FB"/>
</linearGradient>
</defs>
</svg>
