<svg width="182" height="102" viewBox="0 0 182 102" fill="none" xmlns="http://www.w3.org/2000/svg">
<g id="Group 20">
<path id="Vector" d="M156.668 59.1993C154.267 57.1854 150.076 55.8475 145.293 55.8475C144.571 55.8475 143.862 55.8895 143.167 55.9454C143.167 55.9128 143.167 55.8801 143.167 55.8475C143.167 53.7418 142.582 51.6776 141.479 49.8843C140.375 48.091 138.796 46.6389 136.916 45.6895C135.96 45.2 135.16 44.4522 134.607 43.5309C134.054 42.6097 133.77 41.552 133.788 40.4777V40.4357C133.787 35.8146 131.95 31.383 128.683 28.1153C125.415 24.8476 120.984 23.0113 116.362 23.0101C116.055 23.0101 115.756 23.0427 115.458 23.0567C115.458 22.8935 115.458 22.7304 115.458 22.5905C115.462 17.2302 113.539 12.0471 110.038 7.98748C106.538 3.92791 101.694 1.26269 96.3912 0.478428C91.0885 -0.305834 85.6807 0.84318 81.1549 3.71568C76.6292 6.58818 73.2875 10.9926 71.74 16.1247C71.3498 17.4407 70.4941 18.5698 69.3328 19.3015C68.1714 20.0331 66.7835 20.3174 65.428 20.1012C63.1676 19.7458 60.8571 19.8841 58.6552 20.5065C56.4534 21.1289 54.4124 22.2206 52.6725 23.7067C50.9327 25.1927 49.5352 27.0379 48.5761 29.1153C47.617 31.1928 47.1191 33.4532 47.1166 35.7414C47.1166 36.1376 47.1446 36.5245 47.1772 36.9161C46.7856 36.8835 46.394 36.8555 45.9978 36.8555C42.3839 36.8555 38.9179 38.2911 36.3625 40.8466C33.8071 43.402 32.3715 46.8679 32.3715 50.4818C32.3715 50.645 32.3715 50.7988 32.3715 50.948C30.6146 49.6958 28.446 49.1616 26.3086 49.4544C24.1712 49.7472 22.2262 50.8451 20.8709 52.5237C20.3029 53.253 19.5695 53.8367 18.7314 54.2266C17.8932 54.6165 16.9744 54.8014 16.0506 54.766C15.5472 54.738 15.0344 54.7287 14.5123 54.7287C8.24685 54.7287 2.85786 56.5654 0.550293 59.1947L156.668 59.1993Z" fill="white"/>
<path id="Vector_2" d="M155.27 58.2204C152.803 56.7706 149.274 55.8475 145.321 55.8475C144.599 55.8475 143.89 55.8895 143.196 55.9454C143.196 55.9128 143.196 55.8802 143.196 55.8475C143.195 53.7419 142.61 51.6776 141.507 49.8843C140.403 48.091 138.824 46.6389 136.944 45.6896C135.988 45.2 135.188 44.4522 134.635 43.531C134.082 42.6097 133.798 41.552 133.816 40.4777V40.4358C133.817 36.2675 132.318 32.238 129.593 29.0844C129.425 29.0844 129.262 29.0611 129.094 29.0611C128.786 29.0611 128.488 29.0937 128.189 29.1077C128.189 28.9445 128.189 28.7814 128.189 28.6136C128.189 28.2732 128.157 27.9423 128.138 27.6066C124.936 24.651 120.739 23.0099 116.381 23.0101C116.073 23.0101 115.775 23.0427 115.477 23.0567C115.477 22.8936 115.477 22.7304 115.477 22.5906C115.479 19.5811 114.871 16.6024 113.689 13.8348C112.507 11.0672 110.776 8.56809 108.601 6.48885C103.37 5.80605 98.0665 7.00962 93.6427 9.88362C89.2189 12.7576 85.9641 17.114 84.4621 22.171C84.0727 23.4876 83.2173 24.6173 82.0556 25.3491C80.894 26.0809 79.5057 26.3647 78.15 26.1475C75.8878 25.7905 73.5751 25.928 71.3711 26.5505C69.1671 27.173 67.1242 28.2658 65.383 29.7535C63.6418 31.2413 62.2437 33.0887 61.285 35.1686C60.3262 37.2485 59.8296 39.5114 59.8293 41.8017C59.8293 42.1979 59.8573 42.5895 59.8853 42.9811C59.4983 42.9438 59.1068 42.9205 58.7105 42.9205C55.0966 42.9205 51.6307 44.3561 49.0752 46.9115C46.5198 49.467 45.0842 52.9329 45.0842 56.5468C45.0842 56.7053 45.0842 56.8638 45.1075 57.013C43.3509 55.7564 41.1803 55.2191 39.0403 55.5111C36.9004 55.8032 34.9532 56.9026 33.5976 58.584C33.4168 58.8043 33.2221 59.013 33.0149 59.2087H155.531C155.451 58.8684 155.358 58.542 155.27 58.2204Z" fill="url(#paint0_linear_127_1455)"/>
<path id="Vector_3" d="M182 59.1994C179.254 60.6399 174.457 61.5955 168.984 61.5955C168.155 61.5955 167.348 61.5675 166.551 61.5256C166.551 61.5489 166.551 61.5722 166.551 61.5955C166.551 64.7702 163.642 67.5113 159.4 68.8539C157.148 69.5625 155.81 71.0029 155.82 72.5833V72.6159C155.82 79.492 146.892 85.0675 135.886 85.0675C135.536 85.0675 135.191 85.0441 134.846 85.0348C134.846 85.1514 134.846 85.2679 134.846 85.3845C134.846 94.2045 123.406 101.351 109.291 101.351C97.7481 101.351 88.0004 96.5727 84.8304 90.0089C83.8981 88.0557 80.8306 86.8483 77.6047 87.1653C76.6723 87.2538 75.74 87.3004 74.8076 87.3004C64.7849 87.3004 56.6594 82.2285 56.6594 75.9677C56.6663 75.6853 56.6896 75.4036 56.7293 75.1239C56.2632 75.1519 55.8389 75.1705 55.3821 75.1705C46.7718 75.1705 39.7932 70.8071 39.7932 65.4321C39.7932 65.3156 39.8165 65.2037 39.8211 65.0872C38.0387 65.8597 36.1137 66.2488 34.1711 66.2293C31.1176 66.2293 28.3998 65.3482 26.6237 63.973C25.0205 62.8285 23.0758 62.263 21.1088 62.3694C20.5308 62.388 19.9434 62.3973 19.3467 62.3973C12.1816 62.3973 6.03271 61.0827 3.37085 59.204L182 59.1994Z" fill="white"/>
<path id="Vector_4" d="M180.369 59.8986C177.544 60.9335 173.506 61.5955 168.985 61.5955C168.155 61.5955 167.348 61.5675 166.551 61.5256C166.551 61.5489 166.551 61.5722 166.551 61.5955C166.551 64.7702 163.642 67.5113 159.4 68.8539C157.148 69.5624 155.81 71.0029 155.82 72.5833V72.6159C155.82 75.716 153.992 78.5457 150.99 80.7274C150.799 80.7274 150.613 80.7274 150.417 80.7274C150.067 80.7274 149.727 80.7274 149.382 80.6947C149.382 80.8159 149.382 80.9325 149.382 81.049C149.382 81.2914 149.34 81.5152 149.326 81.7716C145.778 83.8041 141.061 85.0348 135.872 85.0348C135.522 85.0348 135.177 85.0115 134.833 85.0022C134.833 85.1187 134.833 85.2353 134.833 85.3518C134.833 89.8784 131.807 93.9574 126.963 96.8617C125.929 96.9409 124.88 96.9969 123.812 96.9969C112.27 96.9969 102.522 92.2139 99.3472 85.6502C98.4149 83.7016 95.3474 82.4895 92.1262 82.8065C91.1967 82.8999 90.2632 82.9466 89.3291 82.9464C79.3063 82.9464 71.1809 77.8697 71.1809 71.609C71.188 71.3281 71.2113 71.048 71.2508 70.7698C70.7846 70.7932 70.3557 70.8118 69.9036 70.8118C61.2933 70.8118 54.3146 66.453 54.3146 61.0734C54.3146 60.9615 54.3146 60.8496 54.3426 60.7331C52.5589 61.5013 50.6345 61.8887 48.6926 61.8705C45.6391 61.8705 42.9213 60.9941 41.1405 59.6142C40.9278 59.4528 40.7052 59.3049 40.4739 59.1714H180.695C180.603 59.4208 180.494 59.6638 180.369 59.8986Z" fill="url(#paint1_linear_127_1455)"/>
<path id="Vector_5" d="M137.797 60.8263C136.324 59.591 133.746 58.7658 130.804 58.7658C130.338 58.7658 129.923 58.7891 129.494 58.8264C129.494 58.8264 129.494 58.7891 129.494 58.7658C129.495 57.4728 129.138 56.2049 128.461 55.1029C127.785 54.001 126.816 53.1082 125.663 52.5237C125.075 52.2219 124.584 51.7623 124.244 51.1965C123.904 50.6307 123.728 49.9812 123.737 49.3211V49.2978C123.737 46.4541 122.608 43.7269 120.597 41.7162C118.586 39.7054 115.859 38.5757 113.015 38.5757C112.824 38.5757 112.642 38.5758 112.456 38.6037C112.456 38.5012 112.456 38.4033 112.456 38.3007C112.434 35.0232 111.241 31.8616 109.091 29.3878C106.941 26.9139 103.977 25.2911 100.734 24.813C97.4917 24.3348 94.1851 25.0328 91.4126 26.7807C88.6401 28.5287 86.5846 31.2111 85.618 34.3429C85.3775 35.151 84.8516 35.8443 84.1381 36.2937C83.4246 36.743 82.5722 36.9179 81.7394 36.7856C81.2351 36.7078 80.7253 36.6704 80.215 36.6738C77.6306 36.6738 75.1519 37.7001 73.324 39.5271C71.4961 41.3542 70.4685 43.8324 70.4673 46.4168C70.4673 46.6592 70.4673 46.883 70.5046 47.1394C70.2668 47.1394 70.0384 47.1021 69.782 47.1021C67.5565 47.1021 65.4222 47.9862 63.8486 49.5598C62.2749 51.1335 61.3909 53.2678 61.3909 55.4933C61.3909 55.5912 61.3909 55.6844 61.3909 55.7823C60.3164 55.0149 58.9904 54.6847 57.6815 54.8587C56.3726 55.0327 55.1789 55.6978 54.3423 56.7193C53.9967 57.1722 53.5475 57.5355 53.0324 57.7789C52.5173 58.0222 51.9514 58.1385 51.3821 58.1178C51.0744 58.1178 50.7574 58.0945 50.4497 58.0945C46.6038 58.0945 43.2986 59.2273 41.8721 60.8403L137.797 60.8263Z" fill="white"/>
<path id="Vector_6" d="M137.797 60.8263C137.417 60.5151 137.005 60.2462 136.567 60.0245H136.473C136.473 60.0245 136.473 59.9872 136.473 59.9685C134.7 59.1403 132.761 58.7274 130.805 58.7611C130.338 58.7611 129.924 58.7844 129.495 58.8217C129.495 58.8217 129.495 58.7844 129.495 58.7611C129.495 57.4689 129.137 56.202 128.46 55.1009C127.784 53.9999 126.815 53.1078 125.663 52.5237C125.076 52.2219 124.584 51.7622 124.244 51.1964C123.904 50.6306 123.729 49.9812 123.737 49.3211V49.2978C123.737 46.4541 122.608 43.7269 120.597 41.7161C118.586 39.7054 115.859 38.5757 113.015 38.5757C112.824 38.5757 112.642 38.5757 112.456 38.6037C112.456 38.5011 112.456 38.4032 112.456 38.3007C112.455 35.6764 111.703 33.1071 110.288 30.8971C108.873 28.6871 106.854 26.9288 104.47 25.8305C101.745 26.0764 99.1563 27.1309 97.0349 28.8585C94.9135 30.5862 93.3567 32.9083 92.5642 35.5269C92.3237 36.3363 91.7972 37.0308 91.0829 37.481C90.3685 37.9312 89.5149 38.1066 88.6809 37.9744C88.1815 37.8937 87.6764 37.8532 87.1705 37.8531C84.5853 37.8531 82.1059 38.8801 80.2778 40.7082C78.4498 42.5362 77.4228 45.0156 77.4228 47.6009C77.4228 47.8433 77.4228 48.0671 77.4601 48.3235C77.2223 48.3235 76.9939 48.2862 76.7375 48.2862C74.512 48.2862 72.3777 49.1702 70.8041 50.7439C69.2304 52.3175 68.3463 54.4519 68.3463 56.6773C68.3463 56.7799 68.3463 56.8731 68.3463 56.971C67.2659 56.1937 65.9287 55.8601 64.6098 56.0387C63.2908 56.2173 62.0905 56.8947 61.2558 57.9313C60.9102 58.3842 60.461 58.7476 59.9459 58.9909C59.4308 59.2343 58.8649 59.3505 58.2956 59.3299C57.9833 59.3299 57.6709 59.3066 57.3632 59.3066C54.5662 59.3066 52.0675 59.9033 50.3706 60.8496L137.797 60.8263Z" fill="url(#paint2_linear_127_1455)"/>
</g>
<defs>
<linearGradient id="paint0_linear_127_1455" x1="94.2727" y1="6.30219" x2="94.2727" y2="59.2087" gradientUnits="userSpaceOnUse">
<stop stop-color="#F1F1FB"/>
<stop offset="1" stop-color="#ECECF8"/>
</linearGradient>
<linearGradient id="paint1_linear_127_1455" x1="110.584" y1="59.1714" x2="110.584" y2="96.9969" gradientUnits="userSpaceOnUse">
<stop stop-color="#F1F1FB"/>
<stop offset="1" stop-color="#ECECF8"/>
</linearGradient>
<linearGradient id="paint2_linear_127_1455" x1="94.0839" y1="25.8305" x2="94.0839" y2="60.8496" gradientUnits="userSpaceOnUse">
<stop stop-color="#ECECF8"/>
<stop offset="1" stop-color="#F1F1FB"/>
</linearGradient>
</defs>
</svg>
