<svg width="24" height="24" viewBox="0 0 24 24" fill="none" xmlns="http://www.w3.org/2000/svg">
<g id="mdi:whatsapp" clip-path="url(#clip0_1247_36)">
<path id="Vector" d="M11.988 7.14833e-05C5.43598 7.14833e-05 0.0959999 5.34005 0.0959999 11.892C0.0959999 13.992 0.647998 16.032 1.68 17.832L0 24L6.29998 22.344C8.03998 23.292 9.99597 23.796 11.988 23.796C18.5399 23.796 23.8799 18.456 23.8799 11.904C23.8799 8.72405 22.6439 5.73605 20.3999 3.49206C19.2998 2.38078 17.9894 1.49967 16.5451 0.90013C15.1009 0.300592 13.5517 -0.00537612 11.988 7.14833e-05ZM12 2.00407C14.64 2.00407 17.1119 3.03606 18.9839 4.90806C19.9027 5.82648 20.6311 6.91723 21.1273 8.11776C21.6236 9.31829 21.878 10.605 21.8759 11.904C21.8759 17.352 17.4359 21.78 11.988 21.78C10.212 21.78 8.47198 21.312 6.95998 20.4L6.59998 20.196L2.85599 21.18L3.85199 17.532L3.61199 17.148C2.62072 15.5744 2.09641 13.7518 2.09999 11.892C2.11199 6.44405 6.53998 2.00407 12 2.00407ZM7.77598 6.39605C7.58398 6.39605 7.25998 6.46805 6.98398 6.76805C6.71998 7.06805 5.93998 7.80005 5.93998 9.25204C5.93998 10.716 7.00798 12.12 7.13998 12.324C7.30798 12.528 9.25197 15.528 12.24 16.8C12.948 17.124 13.5 17.304 13.932 17.436C14.64 17.664 15.288 17.628 15.804 17.556C16.38 17.472 17.5559 16.836 17.8079 16.14C18.0599 15.444 18.0599 14.856 17.9879 14.724C17.9039 14.604 17.7119 14.532 17.4119 14.4C17.1119 14.232 15.648 13.512 15.384 13.416C15.108 13.32 14.94 13.272 14.712 13.56C14.52 13.86 13.944 14.532 13.776 14.724C13.596 14.928 13.428 14.952 13.14 14.808C12.828 14.652 11.868 14.34 10.74 13.332C9.85197 12.54 9.26397 11.568 9.08397 11.268C8.93997 10.98 9.07197 10.8 9.21597 10.668C9.34797 10.536 9.53997 10.32 9.65997 10.14C9.81597 9.97204 9.86397 9.84004 9.95997 9.64804C10.056 9.44404 10.008 9.27604 9.93597 9.13204C9.86397 9.00004 9.26397 7.51205 9.01197 6.92405C8.77197 6.34805 8.53197 6.42005 8.33998 6.40805C8.17198 6.40805 7.97998 6.39605 7.77598 6.39605Z" fill="white"/>
</g>
<defs>
<clipPath id="clip0_1247_36">
<rect width="24" height="24" fill="white"/>
</clipPath>
</defs>
</svg>
